%TF.GenerationSoftware,KiCad,Pcbnew,7.0.10-7.0.10~ubuntu22.04.1*%
%TF.CreationDate,2024-01-16T19:59:32-05:00*%
%TF.ProjectId,sys11-c11998-relay,73797331-312d-4633-9131-3939382d7265,1.0*%
%TF.SameCoordinates,Original*%
%TF.FileFunction,Drillmap*%
%TF.FilePolarity,Positive*%
%FSLAX45Y45*%
G04 Gerber Fmt 4.5, Leading zero omitted, Abs format (unit mm)*
G04 Created by KiCad (PCBNEW 7.0.10-7.0.10~ubuntu22.04.1) date 2024-01-16 19:59:32*
%MOMM*%
%LPD*%
G01*
G04 APERTURE LIST*
%ADD10C,0.100000*%
%ADD11C,0.200000*%
%ADD12C,0.110000*%
%ADD13C,0.180000*%
%ADD14C,0.218440*%
G04 APERTURE END LIST*
D10*
X10007600Y-10008200D02*
X15307600Y-10008200D01*
X15307600Y-14808200D01*
X10007600Y-14808200D01*
X10007600Y-10008200D01*
D11*
D10*
X10953500Y-11410700D02*
X11033500Y-11490700D01*
X11033500Y-11410700D02*
X10953500Y-11490700D01*
X10953500Y-12410700D02*
X11033500Y-12490700D01*
X11033500Y-12410700D02*
X10953500Y-12490700D01*
X11453500Y-11418700D02*
X11533500Y-11498700D01*
X11533500Y-11418700D02*
X11453500Y-11498700D01*
X11453500Y-12418700D02*
X11533500Y-12498700D01*
X11533500Y-12418700D02*
X11453500Y-12498700D01*
X12676000Y-13597260D02*
X12756000Y-13677260D01*
X12756000Y-13597260D02*
X12676000Y-13677260D01*
X13176380Y-13261980D02*
X13256380Y-13341980D01*
X13256380Y-13261980D02*
X13176380Y-13341980D01*
X13676000Y-13597260D02*
X13756000Y-13677260D01*
X13756000Y-13597260D02*
X13676000Y-13677260D01*
X14176380Y-13261980D02*
X14256380Y-13341980D01*
X14256380Y-13261980D02*
X14176380Y-13341980D01*
D12*
X10532500Y-11442700D02*
G75*
G03*
X10422500Y-11442700I-55000J0D01*
G01*
X10422500Y-11442700D02*
G75*
G03*
X10532500Y-11442700I55000J0D01*
G01*
X10532500Y-12712700D02*
G75*
G03*
X10422500Y-12712700I-55000J0D01*
G01*
X10422500Y-12712700D02*
G75*
G03*
X10532500Y-12712700I55000J0D01*
G01*
D13*
X11173580Y-14246120D02*
X11173580Y-14426120D01*
X11083580Y-14336120D02*
X11263580Y-14336120D01*
X11569580Y-14246120D02*
X11569580Y-14426120D01*
X11479580Y-14336120D02*
X11659580Y-14336120D01*
X12365920Y-14245760D02*
X12365920Y-14425760D01*
X12275920Y-14335760D02*
X12455920Y-14335760D01*
X12761920Y-14245760D02*
X12761920Y-14425760D01*
X12671920Y-14335760D02*
X12851920Y-14335760D01*
X13157920Y-14245760D02*
X13157920Y-14425760D01*
X13067920Y-14335760D02*
X13247920Y-14335760D01*
X13553920Y-14245760D02*
X13553920Y-14425760D01*
X13463920Y-14335760D02*
X13643920Y-14335760D01*
X13949920Y-14245760D02*
X13949920Y-14425760D01*
X13859920Y-14335760D02*
X14039920Y-14335760D01*
X14345920Y-14245760D02*
X14345920Y-14425760D01*
X14255920Y-14335760D02*
X14435920Y-14335760D01*
X14741920Y-14245760D02*
X14741920Y-14425760D01*
X14651920Y-14335760D02*
X14831920Y-14335760D01*
D14*
X12906771Y-11532631D02*
X12906771Y-11378169D01*
X12752309Y-11378169D01*
X12752309Y-11532631D01*
X12906771Y-11532631D01*
X12906771Y-12533391D02*
X12906771Y-12378929D01*
X12752309Y-12378929D01*
X12752309Y-12533391D01*
X12906771Y-12533391D01*
X13376671Y-11532631D02*
X13376671Y-11378169D01*
X13222209Y-11378169D01*
X13222209Y-11532631D01*
X13376671Y-11532631D01*
X13376671Y-12533391D02*
X13376671Y-12378929D01*
X13222209Y-12378929D01*
X13222209Y-12533391D01*
X13376671Y-12533391D01*
X13965951Y-11532631D02*
X13965951Y-11378169D01*
X13811489Y-11378169D01*
X13811489Y-11532631D01*
X13965951Y-11532631D01*
X13965951Y-12533391D02*
X13965951Y-12378929D01*
X13811489Y-12378929D01*
X13811489Y-12533391D01*
X13965951Y-12533391D01*
X14689851Y-11323081D02*
X14689851Y-11168619D01*
X14535389Y-11168619D01*
X14535389Y-11323081D01*
X14689851Y-11323081D01*
X14689851Y-12742941D02*
X14689851Y-12588479D01*
X14535389Y-12588479D01*
X14535389Y-12742941D01*
X14689851Y-12742941D01*
D11*
X10263377Y-15124684D02*
X10263377Y-14924684D01*
X10263377Y-14924684D02*
X10310996Y-14924684D01*
X10310996Y-14924684D02*
X10339567Y-14934208D01*
X10339567Y-14934208D02*
X10358615Y-14953255D01*
X10358615Y-14953255D02*
X10368139Y-14972303D01*
X10368139Y-14972303D02*
X10377663Y-15010398D01*
X10377663Y-15010398D02*
X10377663Y-15038969D01*
X10377663Y-15038969D02*
X10368139Y-15077065D01*
X10368139Y-15077065D02*
X10358615Y-15096112D01*
X10358615Y-15096112D02*
X10339567Y-15115160D01*
X10339567Y-15115160D02*
X10310996Y-15124684D01*
X10310996Y-15124684D02*
X10263377Y-15124684D01*
X10463377Y-15124684D02*
X10463377Y-14991350D01*
X10463377Y-15029446D02*
X10472901Y-15010398D01*
X10472901Y-15010398D02*
X10482424Y-15000874D01*
X10482424Y-15000874D02*
X10501472Y-14991350D01*
X10501472Y-14991350D02*
X10520520Y-14991350D01*
X10587186Y-15124684D02*
X10587186Y-14991350D01*
X10587186Y-14924684D02*
X10577663Y-14934208D01*
X10577663Y-14934208D02*
X10587186Y-14943731D01*
X10587186Y-14943731D02*
X10596710Y-14934208D01*
X10596710Y-14934208D02*
X10587186Y-14924684D01*
X10587186Y-14924684D02*
X10587186Y-14943731D01*
X10710996Y-15124684D02*
X10691948Y-15115160D01*
X10691948Y-15115160D02*
X10682424Y-15096112D01*
X10682424Y-15096112D02*
X10682424Y-14924684D01*
X10815758Y-15124684D02*
X10796710Y-15115160D01*
X10796710Y-15115160D02*
X10787186Y-15096112D01*
X10787186Y-15096112D02*
X10787186Y-14924684D01*
X11044329Y-15124684D02*
X11044329Y-14924684D01*
X11044329Y-14924684D02*
X11110996Y-15067541D01*
X11110996Y-15067541D02*
X11177663Y-14924684D01*
X11177663Y-14924684D02*
X11177663Y-15124684D01*
X11358615Y-15124684D02*
X11358615Y-15019922D01*
X11358615Y-15019922D02*
X11349091Y-15000874D01*
X11349091Y-15000874D02*
X11330043Y-14991350D01*
X11330043Y-14991350D02*
X11291948Y-14991350D01*
X11291948Y-14991350D02*
X11272901Y-15000874D01*
X11358615Y-15115160D02*
X11339567Y-15124684D01*
X11339567Y-15124684D02*
X11291948Y-15124684D01*
X11291948Y-15124684D02*
X11272901Y-15115160D01*
X11272901Y-15115160D02*
X11263377Y-15096112D01*
X11263377Y-15096112D02*
X11263377Y-15077065D01*
X11263377Y-15077065D02*
X11272901Y-15058017D01*
X11272901Y-15058017D02*
X11291948Y-15048493D01*
X11291948Y-15048493D02*
X11339567Y-15048493D01*
X11339567Y-15048493D02*
X11358615Y-15038969D01*
X11453853Y-14991350D02*
X11453853Y-15191350D01*
X11453853Y-15000874D02*
X11472901Y-14991350D01*
X11472901Y-14991350D02*
X11510996Y-14991350D01*
X11510996Y-14991350D02*
X11530043Y-15000874D01*
X11530043Y-15000874D02*
X11539567Y-15010398D01*
X11539567Y-15010398D02*
X11549091Y-15029446D01*
X11549091Y-15029446D02*
X11549091Y-15086588D01*
X11549091Y-15086588D02*
X11539567Y-15105636D01*
X11539567Y-15105636D02*
X11530043Y-15115160D01*
X11530043Y-15115160D02*
X11510996Y-15124684D01*
X11510996Y-15124684D02*
X11472901Y-15124684D01*
X11472901Y-15124684D02*
X11453853Y-15115160D01*
X11634805Y-15105636D02*
X11644329Y-15115160D01*
X11644329Y-15115160D02*
X11634805Y-15124684D01*
X11634805Y-15124684D02*
X11625282Y-15115160D01*
X11625282Y-15115160D02*
X11634805Y-15105636D01*
X11634805Y-15105636D02*
X11634805Y-15124684D01*
X11634805Y-15000874D02*
X11644329Y-15010398D01*
X11644329Y-15010398D02*
X11634805Y-15019922D01*
X11634805Y-15019922D02*
X11625282Y-15010398D01*
X11625282Y-15010398D02*
X11634805Y-15000874D01*
X11634805Y-15000874D02*
X11634805Y-15019922D01*
D10*
X9922600Y-15413200D02*
X10002600Y-15493200D01*
X10002600Y-15413200D02*
X9922600Y-15493200D01*
D11*
X10301472Y-15344684D02*
X10320520Y-15344684D01*
X10320520Y-15344684D02*
X10339567Y-15354208D01*
X10339567Y-15354208D02*
X10349091Y-15363731D01*
X10349091Y-15363731D02*
X10358615Y-15382779D01*
X10358615Y-15382779D02*
X10368139Y-15420874D01*
X10368139Y-15420874D02*
X10368139Y-15468493D01*
X10368139Y-15468493D02*
X10358615Y-15506588D01*
X10358615Y-15506588D02*
X10349091Y-15525636D01*
X10349091Y-15525636D02*
X10339567Y-15535160D01*
X10339567Y-15535160D02*
X10320520Y-15544684D01*
X10320520Y-15544684D02*
X10301472Y-15544684D01*
X10301472Y-15544684D02*
X10282424Y-15535160D01*
X10282424Y-15535160D02*
X10272901Y-15525636D01*
X10272901Y-15525636D02*
X10263377Y-15506588D01*
X10263377Y-15506588D02*
X10253853Y-15468493D01*
X10253853Y-15468493D02*
X10253853Y-15420874D01*
X10253853Y-15420874D02*
X10263377Y-15382779D01*
X10263377Y-15382779D02*
X10272901Y-15363731D01*
X10272901Y-15363731D02*
X10282424Y-15354208D01*
X10282424Y-15354208D02*
X10301472Y-15344684D01*
X10453853Y-15525636D02*
X10463377Y-15535160D01*
X10463377Y-15535160D02*
X10453853Y-15544684D01*
X10453853Y-15544684D02*
X10444329Y-15535160D01*
X10444329Y-15535160D02*
X10453853Y-15525636D01*
X10453853Y-15525636D02*
X10453853Y-15544684D01*
X10577663Y-15430398D02*
X10558615Y-15420874D01*
X10558615Y-15420874D02*
X10549091Y-15411350D01*
X10549091Y-15411350D02*
X10539567Y-15392303D01*
X10539567Y-15392303D02*
X10539567Y-15382779D01*
X10539567Y-15382779D02*
X10549091Y-15363731D01*
X10549091Y-15363731D02*
X10558615Y-15354208D01*
X10558615Y-15354208D02*
X10577663Y-15344684D01*
X10577663Y-15344684D02*
X10615758Y-15344684D01*
X10615758Y-15344684D02*
X10634805Y-15354208D01*
X10634805Y-15354208D02*
X10644329Y-15363731D01*
X10644329Y-15363731D02*
X10653853Y-15382779D01*
X10653853Y-15382779D02*
X10653853Y-15392303D01*
X10653853Y-15392303D02*
X10644329Y-15411350D01*
X10644329Y-15411350D02*
X10634805Y-15420874D01*
X10634805Y-15420874D02*
X10615758Y-15430398D01*
X10615758Y-15430398D02*
X10577663Y-15430398D01*
X10577663Y-15430398D02*
X10558615Y-15439922D01*
X10558615Y-15439922D02*
X10549091Y-15449446D01*
X10549091Y-15449446D02*
X10539567Y-15468493D01*
X10539567Y-15468493D02*
X10539567Y-15506588D01*
X10539567Y-15506588D02*
X10549091Y-15525636D01*
X10549091Y-15525636D02*
X10558615Y-15535160D01*
X10558615Y-15535160D02*
X10577663Y-15544684D01*
X10577663Y-15544684D02*
X10615758Y-15544684D01*
X10615758Y-15544684D02*
X10634805Y-15535160D01*
X10634805Y-15535160D02*
X10644329Y-15525636D01*
X10644329Y-15525636D02*
X10653853Y-15506588D01*
X10653853Y-15506588D02*
X10653853Y-15468493D01*
X10653853Y-15468493D02*
X10644329Y-15449446D01*
X10644329Y-15449446D02*
X10634805Y-15439922D01*
X10634805Y-15439922D02*
X10615758Y-15430398D01*
X10777663Y-15344684D02*
X10796710Y-15344684D01*
X10796710Y-15344684D02*
X10815758Y-15354208D01*
X10815758Y-15354208D02*
X10825282Y-15363731D01*
X10825282Y-15363731D02*
X10834805Y-15382779D01*
X10834805Y-15382779D02*
X10844329Y-15420874D01*
X10844329Y-15420874D02*
X10844329Y-15468493D01*
X10844329Y-15468493D02*
X10834805Y-15506588D01*
X10834805Y-15506588D02*
X10825282Y-15525636D01*
X10825282Y-15525636D02*
X10815758Y-15535160D01*
X10815758Y-15535160D02*
X10796710Y-15544684D01*
X10796710Y-15544684D02*
X10777663Y-15544684D01*
X10777663Y-15544684D02*
X10758615Y-15535160D01*
X10758615Y-15535160D02*
X10749091Y-15525636D01*
X10749091Y-15525636D02*
X10739567Y-15506588D01*
X10739567Y-15506588D02*
X10730044Y-15468493D01*
X10730044Y-15468493D02*
X10730044Y-15420874D01*
X10730044Y-15420874D02*
X10739567Y-15382779D01*
X10739567Y-15382779D02*
X10749091Y-15363731D01*
X10749091Y-15363731D02*
X10758615Y-15354208D01*
X10758615Y-15354208D02*
X10777663Y-15344684D01*
X10968139Y-15344684D02*
X10987186Y-15344684D01*
X10987186Y-15344684D02*
X11006234Y-15354208D01*
X11006234Y-15354208D02*
X11015758Y-15363731D01*
X11015758Y-15363731D02*
X11025282Y-15382779D01*
X11025282Y-15382779D02*
X11034805Y-15420874D01*
X11034805Y-15420874D02*
X11034805Y-15468493D01*
X11034805Y-15468493D02*
X11025282Y-15506588D01*
X11025282Y-15506588D02*
X11015758Y-15525636D01*
X11015758Y-15525636D02*
X11006234Y-15535160D01*
X11006234Y-15535160D02*
X10987186Y-15544684D01*
X10987186Y-15544684D02*
X10968139Y-15544684D01*
X10968139Y-15544684D02*
X10949091Y-15535160D01*
X10949091Y-15535160D02*
X10939567Y-15525636D01*
X10939567Y-15525636D02*
X10930044Y-15506588D01*
X10930044Y-15506588D02*
X10920520Y-15468493D01*
X10920520Y-15468493D02*
X10920520Y-15420874D01*
X10920520Y-15420874D02*
X10930044Y-15382779D01*
X10930044Y-15382779D02*
X10939567Y-15363731D01*
X10939567Y-15363731D02*
X10949091Y-15354208D01*
X10949091Y-15354208D02*
X10968139Y-15344684D01*
X11120520Y-15544684D02*
X11120520Y-15411350D01*
X11120520Y-15430398D02*
X11130044Y-15420874D01*
X11130044Y-15420874D02*
X11149091Y-15411350D01*
X11149091Y-15411350D02*
X11177663Y-15411350D01*
X11177663Y-15411350D02*
X11196710Y-15420874D01*
X11196710Y-15420874D02*
X11206234Y-15439922D01*
X11206234Y-15439922D02*
X11206234Y-15544684D01*
X11206234Y-15439922D02*
X11215758Y-15420874D01*
X11215758Y-15420874D02*
X11234805Y-15411350D01*
X11234805Y-15411350D02*
X11263377Y-15411350D01*
X11263377Y-15411350D02*
X11282424Y-15420874D01*
X11282424Y-15420874D02*
X11291948Y-15439922D01*
X11291948Y-15439922D02*
X11291948Y-15544684D01*
X11387186Y-15544684D02*
X11387186Y-15411350D01*
X11387186Y-15430398D02*
X11396710Y-15420874D01*
X11396710Y-15420874D02*
X11415758Y-15411350D01*
X11415758Y-15411350D02*
X11444329Y-15411350D01*
X11444329Y-15411350D02*
X11463377Y-15420874D01*
X11463377Y-15420874D02*
X11472901Y-15439922D01*
X11472901Y-15439922D02*
X11472901Y-15544684D01*
X11472901Y-15439922D02*
X11482424Y-15420874D01*
X11482424Y-15420874D02*
X11501472Y-15411350D01*
X11501472Y-15411350D02*
X11530043Y-15411350D01*
X11530043Y-15411350D02*
X11549091Y-15420874D01*
X11549091Y-15420874D02*
X11558615Y-15439922D01*
X11558615Y-15439922D02*
X11558615Y-15544684D01*
X11949091Y-15335160D02*
X11777663Y-15592303D01*
X12206234Y-15344684D02*
X12225282Y-15344684D01*
X12225282Y-15344684D02*
X12244329Y-15354208D01*
X12244329Y-15354208D02*
X12253853Y-15363731D01*
X12253853Y-15363731D02*
X12263377Y-15382779D01*
X12263377Y-15382779D02*
X12272901Y-15420874D01*
X12272901Y-15420874D02*
X12272901Y-15468493D01*
X12272901Y-15468493D02*
X12263377Y-15506588D01*
X12263377Y-15506588D02*
X12253853Y-15525636D01*
X12253853Y-15525636D02*
X12244329Y-15535160D01*
X12244329Y-15535160D02*
X12225282Y-15544684D01*
X12225282Y-15544684D02*
X12206234Y-15544684D01*
X12206234Y-15544684D02*
X12187186Y-15535160D01*
X12187186Y-15535160D02*
X12177663Y-15525636D01*
X12177663Y-15525636D02*
X12168139Y-15506588D01*
X12168139Y-15506588D02*
X12158615Y-15468493D01*
X12158615Y-15468493D02*
X12158615Y-15420874D01*
X12158615Y-15420874D02*
X12168139Y-15382779D01*
X12168139Y-15382779D02*
X12177663Y-15363731D01*
X12177663Y-15363731D02*
X12187186Y-15354208D01*
X12187186Y-15354208D02*
X12206234Y-15344684D01*
X12358615Y-15525636D02*
X12368139Y-15535160D01*
X12368139Y-15535160D02*
X12358615Y-15544684D01*
X12358615Y-15544684D02*
X12349091Y-15535160D01*
X12349091Y-15535160D02*
X12358615Y-15525636D01*
X12358615Y-15525636D02*
X12358615Y-15544684D01*
X12491948Y-15344684D02*
X12510996Y-15344684D01*
X12510996Y-15344684D02*
X12530044Y-15354208D01*
X12530044Y-15354208D02*
X12539567Y-15363731D01*
X12539567Y-15363731D02*
X12549091Y-15382779D01*
X12549091Y-15382779D02*
X12558615Y-15420874D01*
X12558615Y-15420874D02*
X12558615Y-15468493D01*
X12558615Y-15468493D02*
X12549091Y-15506588D01*
X12549091Y-15506588D02*
X12539567Y-15525636D01*
X12539567Y-15525636D02*
X12530044Y-15535160D01*
X12530044Y-15535160D02*
X12510996Y-15544684D01*
X12510996Y-15544684D02*
X12491948Y-15544684D01*
X12491948Y-15544684D02*
X12472901Y-15535160D01*
X12472901Y-15535160D02*
X12463377Y-15525636D01*
X12463377Y-15525636D02*
X12453853Y-15506588D01*
X12453853Y-15506588D02*
X12444329Y-15468493D01*
X12444329Y-15468493D02*
X12444329Y-15420874D01*
X12444329Y-15420874D02*
X12453853Y-15382779D01*
X12453853Y-15382779D02*
X12463377Y-15363731D01*
X12463377Y-15363731D02*
X12472901Y-15354208D01*
X12472901Y-15354208D02*
X12491948Y-15344684D01*
X12625282Y-15344684D02*
X12749091Y-15344684D01*
X12749091Y-15344684D02*
X12682425Y-15420874D01*
X12682425Y-15420874D02*
X12710996Y-15420874D01*
X12710996Y-15420874D02*
X12730044Y-15430398D01*
X12730044Y-15430398D02*
X12739567Y-15439922D01*
X12739567Y-15439922D02*
X12749091Y-15458969D01*
X12749091Y-15458969D02*
X12749091Y-15506588D01*
X12749091Y-15506588D02*
X12739567Y-15525636D01*
X12739567Y-15525636D02*
X12730044Y-15535160D01*
X12730044Y-15535160D02*
X12710996Y-15544684D01*
X12710996Y-15544684D02*
X12653853Y-15544684D01*
X12653853Y-15544684D02*
X12634806Y-15535160D01*
X12634806Y-15535160D02*
X12625282Y-15525636D01*
X12939567Y-15544684D02*
X12825282Y-15544684D01*
X12882425Y-15544684D02*
X12882425Y-15344684D01*
X12882425Y-15344684D02*
X12863377Y-15373255D01*
X12863377Y-15373255D02*
X12844329Y-15392303D01*
X12844329Y-15392303D02*
X12825282Y-15401827D01*
X13120520Y-15344684D02*
X13025282Y-15344684D01*
X13025282Y-15344684D02*
X13015758Y-15439922D01*
X13015758Y-15439922D02*
X13025282Y-15430398D01*
X13025282Y-15430398D02*
X13044329Y-15420874D01*
X13044329Y-15420874D02*
X13091948Y-15420874D01*
X13091948Y-15420874D02*
X13110996Y-15430398D01*
X13110996Y-15430398D02*
X13120520Y-15439922D01*
X13120520Y-15439922D02*
X13130044Y-15458969D01*
X13130044Y-15458969D02*
X13130044Y-15506588D01*
X13130044Y-15506588D02*
X13120520Y-15525636D01*
X13120520Y-15525636D02*
X13110996Y-15535160D01*
X13110996Y-15535160D02*
X13091948Y-15544684D01*
X13091948Y-15544684D02*
X13044329Y-15544684D01*
X13044329Y-15544684D02*
X13025282Y-15535160D01*
X13025282Y-15535160D02*
X13015758Y-15525636D01*
X13206234Y-15344684D02*
X13206234Y-15382779D01*
X13282425Y-15344684D02*
X13282425Y-15382779D01*
X13577663Y-15620874D02*
X13568139Y-15611350D01*
X13568139Y-15611350D02*
X13549091Y-15582779D01*
X13549091Y-15582779D02*
X13539568Y-15563731D01*
X13539568Y-15563731D02*
X13530044Y-15535160D01*
X13530044Y-15535160D02*
X13520520Y-15487541D01*
X13520520Y-15487541D02*
X13520520Y-15449446D01*
X13520520Y-15449446D02*
X13530044Y-15401827D01*
X13530044Y-15401827D02*
X13539568Y-15373255D01*
X13539568Y-15373255D02*
X13549091Y-15354208D01*
X13549091Y-15354208D02*
X13568139Y-15325636D01*
X13568139Y-15325636D02*
X13577663Y-15316112D01*
X13682425Y-15430398D02*
X13663377Y-15420874D01*
X13663377Y-15420874D02*
X13653853Y-15411350D01*
X13653853Y-15411350D02*
X13644329Y-15392303D01*
X13644329Y-15392303D02*
X13644329Y-15382779D01*
X13644329Y-15382779D02*
X13653853Y-15363731D01*
X13653853Y-15363731D02*
X13663377Y-15354208D01*
X13663377Y-15354208D02*
X13682425Y-15344684D01*
X13682425Y-15344684D02*
X13720520Y-15344684D01*
X13720520Y-15344684D02*
X13739568Y-15354208D01*
X13739568Y-15354208D02*
X13749091Y-15363731D01*
X13749091Y-15363731D02*
X13758615Y-15382779D01*
X13758615Y-15382779D02*
X13758615Y-15392303D01*
X13758615Y-15392303D02*
X13749091Y-15411350D01*
X13749091Y-15411350D02*
X13739568Y-15420874D01*
X13739568Y-15420874D02*
X13720520Y-15430398D01*
X13720520Y-15430398D02*
X13682425Y-15430398D01*
X13682425Y-15430398D02*
X13663377Y-15439922D01*
X13663377Y-15439922D02*
X13653853Y-15449446D01*
X13653853Y-15449446D02*
X13644329Y-15468493D01*
X13644329Y-15468493D02*
X13644329Y-15506588D01*
X13644329Y-15506588D02*
X13653853Y-15525636D01*
X13653853Y-15525636D02*
X13663377Y-15535160D01*
X13663377Y-15535160D02*
X13682425Y-15544684D01*
X13682425Y-15544684D02*
X13720520Y-15544684D01*
X13720520Y-15544684D02*
X13739568Y-15535160D01*
X13739568Y-15535160D02*
X13749091Y-15525636D01*
X13749091Y-15525636D02*
X13758615Y-15506588D01*
X13758615Y-15506588D02*
X13758615Y-15468493D01*
X13758615Y-15468493D02*
X13749091Y-15449446D01*
X13749091Y-15449446D02*
X13739568Y-15439922D01*
X13739568Y-15439922D02*
X13720520Y-15430398D01*
X13996710Y-15544684D02*
X13996710Y-15344684D01*
X14082425Y-15544684D02*
X14082425Y-15439922D01*
X14082425Y-15439922D02*
X14072901Y-15420874D01*
X14072901Y-15420874D02*
X14053853Y-15411350D01*
X14053853Y-15411350D02*
X14025282Y-15411350D01*
X14025282Y-15411350D02*
X14006234Y-15420874D01*
X14006234Y-15420874D02*
X13996710Y-15430398D01*
X14206234Y-15544684D02*
X14187187Y-15535160D01*
X14187187Y-15535160D02*
X14177663Y-15525636D01*
X14177663Y-15525636D02*
X14168139Y-15506588D01*
X14168139Y-15506588D02*
X14168139Y-15449446D01*
X14168139Y-15449446D02*
X14177663Y-15430398D01*
X14177663Y-15430398D02*
X14187187Y-15420874D01*
X14187187Y-15420874D02*
X14206234Y-15411350D01*
X14206234Y-15411350D02*
X14234806Y-15411350D01*
X14234806Y-15411350D02*
X14253853Y-15420874D01*
X14253853Y-15420874D02*
X14263377Y-15430398D01*
X14263377Y-15430398D02*
X14272901Y-15449446D01*
X14272901Y-15449446D02*
X14272901Y-15506588D01*
X14272901Y-15506588D02*
X14263377Y-15525636D01*
X14263377Y-15525636D02*
X14253853Y-15535160D01*
X14253853Y-15535160D02*
X14234806Y-15544684D01*
X14234806Y-15544684D02*
X14206234Y-15544684D01*
X14387187Y-15544684D02*
X14368139Y-15535160D01*
X14368139Y-15535160D02*
X14358615Y-15516112D01*
X14358615Y-15516112D02*
X14358615Y-15344684D01*
X14539568Y-15535160D02*
X14520520Y-15544684D01*
X14520520Y-15544684D02*
X14482425Y-15544684D01*
X14482425Y-15544684D02*
X14463377Y-15535160D01*
X14463377Y-15535160D02*
X14453853Y-15516112D01*
X14453853Y-15516112D02*
X14453853Y-15439922D01*
X14453853Y-15439922D02*
X14463377Y-15420874D01*
X14463377Y-15420874D02*
X14482425Y-15411350D01*
X14482425Y-15411350D02*
X14520520Y-15411350D01*
X14520520Y-15411350D02*
X14539568Y-15420874D01*
X14539568Y-15420874D02*
X14549091Y-15439922D01*
X14549091Y-15439922D02*
X14549091Y-15458969D01*
X14549091Y-15458969D02*
X14453853Y-15478017D01*
X14625282Y-15535160D02*
X14644330Y-15544684D01*
X14644330Y-15544684D02*
X14682425Y-15544684D01*
X14682425Y-15544684D02*
X14701472Y-15535160D01*
X14701472Y-15535160D02*
X14710996Y-15516112D01*
X14710996Y-15516112D02*
X14710996Y-15506588D01*
X14710996Y-15506588D02*
X14701472Y-15487541D01*
X14701472Y-15487541D02*
X14682425Y-15478017D01*
X14682425Y-15478017D02*
X14653853Y-15478017D01*
X14653853Y-15478017D02*
X14634806Y-15468493D01*
X14634806Y-15468493D02*
X14625282Y-15449446D01*
X14625282Y-15449446D02*
X14625282Y-15439922D01*
X14625282Y-15439922D02*
X14634806Y-15420874D01*
X14634806Y-15420874D02*
X14653853Y-15411350D01*
X14653853Y-15411350D02*
X14682425Y-15411350D01*
X14682425Y-15411350D02*
X14701472Y-15420874D01*
X14777663Y-15620874D02*
X14787187Y-15611350D01*
X14787187Y-15611350D02*
X14806234Y-15582779D01*
X14806234Y-15582779D02*
X14815758Y-15563731D01*
X14815758Y-15563731D02*
X14825282Y-15535160D01*
X14825282Y-15535160D02*
X14834806Y-15487541D01*
X14834806Y-15487541D02*
X14834806Y-15449446D01*
X14834806Y-15449446D02*
X14825282Y-15401827D01*
X14825282Y-15401827D02*
X14815758Y-15373255D01*
X14815758Y-15373255D02*
X14806234Y-15354208D01*
X14806234Y-15354208D02*
X14787187Y-15325636D01*
X14787187Y-15325636D02*
X14777663Y-15316112D01*
D12*
X10002600Y-15717200D02*
G75*
G03*
X9892600Y-15717200I-55000J0D01*
G01*
X9892600Y-15717200D02*
G75*
G03*
X10002600Y-15717200I55000J0D01*
G01*
D11*
X10368139Y-15808684D02*
X10253853Y-15808684D01*
X10310996Y-15808684D02*
X10310996Y-15608684D01*
X10310996Y-15608684D02*
X10291948Y-15637255D01*
X10291948Y-15637255D02*
X10272901Y-15656303D01*
X10272901Y-15656303D02*
X10253853Y-15665827D01*
X10453853Y-15789636D02*
X10463377Y-15799160D01*
X10463377Y-15799160D02*
X10453853Y-15808684D01*
X10453853Y-15808684D02*
X10444329Y-15799160D01*
X10444329Y-15799160D02*
X10453853Y-15789636D01*
X10453853Y-15789636D02*
X10453853Y-15808684D01*
X10653853Y-15808684D02*
X10539567Y-15808684D01*
X10596710Y-15808684D02*
X10596710Y-15608684D01*
X10596710Y-15608684D02*
X10577663Y-15637255D01*
X10577663Y-15637255D02*
X10558615Y-15656303D01*
X10558615Y-15656303D02*
X10539567Y-15665827D01*
X10777663Y-15608684D02*
X10796710Y-15608684D01*
X10796710Y-15608684D02*
X10815758Y-15618208D01*
X10815758Y-15618208D02*
X10825282Y-15627731D01*
X10825282Y-15627731D02*
X10834805Y-15646779D01*
X10834805Y-15646779D02*
X10844329Y-15684874D01*
X10844329Y-15684874D02*
X10844329Y-15732493D01*
X10844329Y-15732493D02*
X10834805Y-15770588D01*
X10834805Y-15770588D02*
X10825282Y-15789636D01*
X10825282Y-15789636D02*
X10815758Y-15799160D01*
X10815758Y-15799160D02*
X10796710Y-15808684D01*
X10796710Y-15808684D02*
X10777663Y-15808684D01*
X10777663Y-15808684D02*
X10758615Y-15799160D01*
X10758615Y-15799160D02*
X10749091Y-15789636D01*
X10749091Y-15789636D02*
X10739567Y-15770588D01*
X10739567Y-15770588D02*
X10730044Y-15732493D01*
X10730044Y-15732493D02*
X10730044Y-15684874D01*
X10730044Y-15684874D02*
X10739567Y-15646779D01*
X10739567Y-15646779D02*
X10749091Y-15627731D01*
X10749091Y-15627731D02*
X10758615Y-15618208D01*
X10758615Y-15618208D02*
X10777663Y-15608684D01*
X10968139Y-15608684D02*
X10987186Y-15608684D01*
X10987186Y-15608684D02*
X11006234Y-15618208D01*
X11006234Y-15618208D02*
X11015758Y-15627731D01*
X11015758Y-15627731D02*
X11025282Y-15646779D01*
X11025282Y-15646779D02*
X11034805Y-15684874D01*
X11034805Y-15684874D02*
X11034805Y-15732493D01*
X11034805Y-15732493D02*
X11025282Y-15770588D01*
X11025282Y-15770588D02*
X11015758Y-15789636D01*
X11015758Y-15789636D02*
X11006234Y-15799160D01*
X11006234Y-15799160D02*
X10987186Y-15808684D01*
X10987186Y-15808684D02*
X10968139Y-15808684D01*
X10968139Y-15808684D02*
X10949091Y-15799160D01*
X10949091Y-15799160D02*
X10939567Y-15789636D01*
X10939567Y-15789636D02*
X10930044Y-15770588D01*
X10930044Y-15770588D02*
X10920520Y-15732493D01*
X10920520Y-15732493D02*
X10920520Y-15684874D01*
X10920520Y-15684874D02*
X10930044Y-15646779D01*
X10930044Y-15646779D02*
X10939567Y-15627731D01*
X10939567Y-15627731D02*
X10949091Y-15618208D01*
X10949091Y-15618208D02*
X10968139Y-15608684D01*
X11120520Y-15808684D02*
X11120520Y-15675350D01*
X11120520Y-15694398D02*
X11130044Y-15684874D01*
X11130044Y-15684874D02*
X11149091Y-15675350D01*
X11149091Y-15675350D02*
X11177663Y-15675350D01*
X11177663Y-15675350D02*
X11196710Y-15684874D01*
X11196710Y-15684874D02*
X11206234Y-15703922D01*
X11206234Y-15703922D02*
X11206234Y-15808684D01*
X11206234Y-15703922D02*
X11215758Y-15684874D01*
X11215758Y-15684874D02*
X11234805Y-15675350D01*
X11234805Y-15675350D02*
X11263377Y-15675350D01*
X11263377Y-15675350D02*
X11282424Y-15684874D01*
X11282424Y-15684874D02*
X11291948Y-15703922D01*
X11291948Y-15703922D02*
X11291948Y-15808684D01*
X11387186Y-15808684D02*
X11387186Y-15675350D01*
X11387186Y-15694398D02*
X11396710Y-15684874D01*
X11396710Y-15684874D02*
X11415758Y-15675350D01*
X11415758Y-15675350D02*
X11444329Y-15675350D01*
X11444329Y-15675350D02*
X11463377Y-15684874D01*
X11463377Y-15684874D02*
X11472901Y-15703922D01*
X11472901Y-15703922D02*
X11472901Y-15808684D01*
X11472901Y-15703922D02*
X11482424Y-15684874D01*
X11482424Y-15684874D02*
X11501472Y-15675350D01*
X11501472Y-15675350D02*
X11530043Y-15675350D01*
X11530043Y-15675350D02*
X11549091Y-15684874D01*
X11549091Y-15684874D02*
X11558615Y-15703922D01*
X11558615Y-15703922D02*
X11558615Y-15808684D01*
X11949091Y-15599160D02*
X11777663Y-15856303D01*
X12206234Y-15608684D02*
X12225282Y-15608684D01*
X12225282Y-15608684D02*
X12244329Y-15618208D01*
X12244329Y-15618208D02*
X12253853Y-15627731D01*
X12253853Y-15627731D02*
X12263377Y-15646779D01*
X12263377Y-15646779D02*
X12272901Y-15684874D01*
X12272901Y-15684874D02*
X12272901Y-15732493D01*
X12272901Y-15732493D02*
X12263377Y-15770588D01*
X12263377Y-15770588D02*
X12253853Y-15789636D01*
X12253853Y-15789636D02*
X12244329Y-15799160D01*
X12244329Y-15799160D02*
X12225282Y-15808684D01*
X12225282Y-15808684D02*
X12206234Y-15808684D01*
X12206234Y-15808684D02*
X12187186Y-15799160D01*
X12187186Y-15799160D02*
X12177663Y-15789636D01*
X12177663Y-15789636D02*
X12168139Y-15770588D01*
X12168139Y-15770588D02*
X12158615Y-15732493D01*
X12158615Y-15732493D02*
X12158615Y-15684874D01*
X12158615Y-15684874D02*
X12168139Y-15646779D01*
X12168139Y-15646779D02*
X12177663Y-15627731D01*
X12177663Y-15627731D02*
X12187186Y-15618208D01*
X12187186Y-15618208D02*
X12206234Y-15608684D01*
X12358615Y-15789636D02*
X12368139Y-15799160D01*
X12368139Y-15799160D02*
X12358615Y-15808684D01*
X12358615Y-15808684D02*
X12349091Y-15799160D01*
X12349091Y-15799160D02*
X12358615Y-15789636D01*
X12358615Y-15789636D02*
X12358615Y-15808684D01*
X12491948Y-15608684D02*
X12510996Y-15608684D01*
X12510996Y-15608684D02*
X12530044Y-15618208D01*
X12530044Y-15618208D02*
X12539567Y-15627731D01*
X12539567Y-15627731D02*
X12549091Y-15646779D01*
X12549091Y-15646779D02*
X12558615Y-15684874D01*
X12558615Y-15684874D02*
X12558615Y-15732493D01*
X12558615Y-15732493D02*
X12549091Y-15770588D01*
X12549091Y-15770588D02*
X12539567Y-15789636D01*
X12539567Y-15789636D02*
X12530044Y-15799160D01*
X12530044Y-15799160D02*
X12510996Y-15808684D01*
X12510996Y-15808684D02*
X12491948Y-15808684D01*
X12491948Y-15808684D02*
X12472901Y-15799160D01*
X12472901Y-15799160D02*
X12463377Y-15789636D01*
X12463377Y-15789636D02*
X12453853Y-15770588D01*
X12453853Y-15770588D02*
X12444329Y-15732493D01*
X12444329Y-15732493D02*
X12444329Y-15684874D01*
X12444329Y-15684874D02*
X12453853Y-15646779D01*
X12453853Y-15646779D02*
X12463377Y-15627731D01*
X12463377Y-15627731D02*
X12472901Y-15618208D01*
X12472901Y-15618208D02*
X12491948Y-15608684D01*
X12730044Y-15675350D02*
X12730044Y-15808684D01*
X12682425Y-15599160D02*
X12634806Y-15742017D01*
X12634806Y-15742017D02*
X12758615Y-15742017D01*
X12815758Y-15608684D02*
X12939567Y-15608684D01*
X12939567Y-15608684D02*
X12872901Y-15684874D01*
X12872901Y-15684874D02*
X12901472Y-15684874D01*
X12901472Y-15684874D02*
X12920520Y-15694398D01*
X12920520Y-15694398D02*
X12930044Y-15703922D01*
X12930044Y-15703922D02*
X12939567Y-15722969D01*
X12939567Y-15722969D02*
X12939567Y-15770588D01*
X12939567Y-15770588D02*
X12930044Y-15789636D01*
X12930044Y-15789636D02*
X12920520Y-15799160D01*
X12920520Y-15799160D02*
X12901472Y-15808684D01*
X12901472Y-15808684D02*
X12844329Y-15808684D01*
X12844329Y-15808684D02*
X12825282Y-15799160D01*
X12825282Y-15799160D02*
X12815758Y-15789636D01*
X13006234Y-15608684D02*
X13130044Y-15608684D01*
X13130044Y-15608684D02*
X13063377Y-15684874D01*
X13063377Y-15684874D02*
X13091948Y-15684874D01*
X13091948Y-15684874D02*
X13110996Y-15694398D01*
X13110996Y-15694398D02*
X13120520Y-15703922D01*
X13120520Y-15703922D02*
X13130044Y-15722969D01*
X13130044Y-15722969D02*
X13130044Y-15770588D01*
X13130044Y-15770588D02*
X13120520Y-15789636D01*
X13120520Y-15789636D02*
X13110996Y-15799160D01*
X13110996Y-15799160D02*
X13091948Y-15808684D01*
X13091948Y-15808684D02*
X13034806Y-15808684D01*
X13034806Y-15808684D02*
X13015758Y-15799160D01*
X13015758Y-15799160D02*
X13006234Y-15789636D01*
X13206234Y-15608684D02*
X13206234Y-15646779D01*
X13282425Y-15608684D02*
X13282425Y-15646779D01*
X13577663Y-15884874D02*
X13568139Y-15875350D01*
X13568139Y-15875350D02*
X13549091Y-15846779D01*
X13549091Y-15846779D02*
X13539568Y-15827731D01*
X13539568Y-15827731D02*
X13530044Y-15799160D01*
X13530044Y-15799160D02*
X13520520Y-15751541D01*
X13520520Y-15751541D02*
X13520520Y-15713446D01*
X13520520Y-15713446D02*
X13530044Y-15665827D01*
X13530044Y-15665827D02*
X13539568Y-15637255D01*
X13539568Y-15637255D02*
X13549091Y-15618208D01*
X13549091Y-15618208D02*
X13568139Y-15589636D01*
X13568139Y-15589636D02*
X13577663Y-15580112D01*
X13644329Y-15627731D02*
X13653853Y-15618208D01*
X13653853Y-15618208D02*
X13672901Y-15608684D01*
X13672901Y-15608684D02*
X13720520Y-15608684D01*
X13720520Y-15608684D02*
X13739568Y-15618208D01*
X13739568Y-15618208D02*
X13749091Y-15627731D01*
X13749091Y-15627731D02*
X13758615Y-15646779D01*
X13758615Y-15646779D02*
X13758615Y-15665827D01*
X13758615Y-15665827D02*
X13749091Y-15694398D01*
X13749091Y-15694398D02*
X13634806Y-15808684D01*
X13634806Y-15808684D02*
X13758615Y-15808684D01*
X13996710Y-15808684D02*
X13996710Y-15608684D01*
X14082425Y-15808684D02*
X14082425Y-15703922D01*
X14082425Y-15703922D02*
X14072901Y-15684874D01*
X14072901Y-15684874D02*
X14053853Y-15675350D01*
X14053853Y-15675350D02*
X14025282Y-15675350D01*
X14025282Y-15675350D02*
X14006234Y-15684874D01*
X14006234Y-15684874D02*
X13996710Y-15694398D01*
X14206234Y-15808684D02*
X14187187Y-15799160D01*
X14187187Y-15799160D02*
X14177663Y-15789636D01*
X14177663Y-15789636D02*
X14168139Y-15770588D01*
X14168139Y-15770588D02*
X14168139Y-15713446D01*
X14168139Y-15713446D02*
X14177663Y-15694398D01*
X14177663Y-15694398D02*
X14187187Y-15684874D01*
X14187187Y-15684874D02*
X14206234Y-15675350D01*
X14206234Y-15675350D02*
X14234806Y-15675350D01*
X14234806Y-15675350D02*
X14253853Y-15684874D01*
X14253853Y-15684874D02*
X14263377Y-15694398D01*
X14263377Y-15694398D02*
X14272901Y-15713446D01*
X14272901Y-15713446D02*
X14272901Y-15770588D01*
X14272901Y-15770588D02*
X14263377Y-15789636D01*
X14263377Y-15789636D02*
X14253853Y-15799160D01*
X14253853Y-15799160D02*
X14234806Y-15808684D01*
X14234806Y-15808684D02*
X14206234Y-15808684D01*
X14387187Y-15808684D02*
X14368139Y-15799160D01*
X14368139Y-15799160D02*
X14358615Y-15780112D01*
X14358615Y-15780112D02*
X14358615Y-15608684D01*
X14539568Y-15799160D02*
X14520520Y-15808684D01*
X14520520Y-15808684D02*
X14482425Y-15808684D01*
X14482425Y-15808684D02*
X14463377Y-15799160D01*
X14463377Y-15799160D02*
X14453853Y-15780112D01*
X14453853Y-15780112D02*
X14453853Y-15703922D01*
X14453853Y-15703922D02*
X14463377Y-15684874D01*
X14463377Y-15684874D02*
X14482425Y-15675350D01*
X14482425Y-15675350D02*
X14520520Y-15675350D01*
X14520520Y-15675350D02*
X14539568Y-15684874D01*
X14539568Y-15684874D02*
X14549091Y-15703922D01*
X14549091Y-15703922D02*
X14549091Y-15722969D01*
X14549091Y-15722969D02*
X14453853Y-15742017D01*
X14625282Y-15799160D02*
X14644330Y-15808684D01*
X14644330Y-15808684D02*
X14682425Y-15808684D01*
X14682425Y-15808684D02*
X14701472Y-15799160D01*
X14701472Y-15799160D02*
X14710996Y-15780112D01*
X14710996Y-15780112D02*
X14710996Y-15770588D01*
X14710996Y-15770588D02*
X14701472Y-15751541D01*
X14701472Y-15751541D02*
X14682425Y-15742017D01*
X14682425Y-15742017D02*
X14653853Y-15742017D01*
X14653853Y-15742017D02*
X14634806Y-15732493D01*
X14634806Y-15732493D02*
X14625282Y-15713446D01*
X14625282Y-15713446D02*
X14625282Y-15703922D01*
X14625282Y-15703922D02*
X14634806Y-15684874D01*
X14634806Y-15684874D02*
X14653853Y-15675350D01*
X14653853Y-15675350D02*
X14682425Y-15675350D01*
X14682425Y-15675350D02*
X14701472Y-15684874D01*
X14777663Y-15884874D02*
X14787187Y-15875350D01*
X14787187Y-15875350D02*
X14806234Y-15846779D01*
X14806234Y-15846779D02*
X14815758Y-15827731D01*
X14815758Y-15827731D02*
X14825282Y-15799160D01*
X14825282Y-15799160D02*
X14834806Y-15751541D01*
X14834806Y-15751541D02*
X14834806Y-15713446D01*
X14834806Y-15713446D02*
X14825282Y-15665827D01*
X14825282Y-15665827D02*
X14815758Y-15637255D01*
X14815758Y-15637255D02*
X14806234Y-15618208D01*
X14806234Y-15618208D02*
X14787187Y-15589636D01*
X14787187Y-15589636D02*
X14777663Y-15580112D01*
D13*
X9912600Y-15891200D02*
X9912600Y-16071200D01*
X9822600Y-15981200D02*
X10002600Y-15981200D01*
D11*
X10368139Y-16072684D02*
X10253853Y-16072684D01*
X10310996Y-16072684D02*
X10310996Y-15872684D01*
X10310996Y-15872684D02*
X10291948Y-15901255D01*
X10291948Y-15901255D02*
X10272901Y-15920303D01*
X10272901Y-15920303D02*
X10253853Y-15929827D01*
X10453853Y-16053636D02*
X10463377Y-16063160D01*
X10463377Y-16063160D02*
X10453853Y-16072684D01*
X10453853Y-16072684D02*
X10444329Y-16063160D01*
X10444329Y-16063160D02*
X10453853Y-16053636D01*
X10453853Y-16053636D02*
X10453853Y-16072684D01*
X10577663Y-15958398D02*
X10558615Y-15948874D01*
X10558615Y-15948874D02*
X10549091Y-15939350D01*
X10549091Y-15939350D02*
X10539567Y-15920303D01*
X10539567Y-15920303D02*
X10539567Y-15910779D01*
X10539567Y-15910779D02*
X10549091Y-15891731D01*
X10549091Y-15891731D02*
X10558615Y-15882208D01*
X10558615Y-15882208D02*
X10577663Y-15872684D01*
X10577663Y-15872684D02*
X10615758Y-15872684D01*
X10615758Y-15872684D02*
X10634805Y-15882208D01*
X10634805Y-15882208D02*
X10644329Y-15891731D01*
X10644329Y-15891731D02*
X10653853Y-15910779D01*
X10653853Y-15910779D02*
X10653853Y-15920303D01*
X10653853Y-15920303D02*
X10644329Y-15939350D01*
X10644329Y-15939350D02*
X10634805Y-15948874D01*
X10634805Y-15948874D02*
X10615758Y-15958398D01*
X10615758Y-15958398D02*
X10577663Y-15958398D01*
X10577663Y-15958398D02*
X10558615Y-15967922D01*
X10558615Y-15967922D02*
X10549091Y-15977446D01*
X10549091Y-15977446D02*
X10539567Y-15996493D01*
X10539567Y-15996493D02*
X10539567Y-16034588D01*
X10539567Y-16034588D02*
X10549091Y-16053636D01*
X10549091Y-16053636D02*
X10558615Y-16063160D01*
X10558615Y-16063160D02*
X10577663Y-16072684D01*
X10577663Y-16072684D02*
X10615758Y-16072684D01*
X10615758Y-16072684D02*
X10634805Y-16063160D01*
X10634805Y-16063160D02*
X10644329Y-16053636D01*
X10644329Y-16053636D02*
X10653853Y-16034588D01*
X10653853Y-16034588D02*
X10653853Y-15996493D01*
X10653853Y-15996493D02*
X10644329Y-15977446D01*
X10644329Y-15977446D02*
X10634805Y-15967922D01*
X10634805Y-15967922D02*
X10615758Y-15958398D01*
X10777663Y-15872684D02*
X10796710Y-15872684D01*
X10796710Y-15872684D02*
X10815758Y-15882208D01*
X10815758Y-15882208D02*
X10825282Y-15891731D01*
X10825282Y-15891731D02*
X10834805Y-15910779D01*
X10834805Y-15910779D02*
X10844329Y-15948874D01*
X10844329Y-15948874D02*
X10844329Y-15996493D01*
X10844329Y-15996493D02*
X10834805Y-16034588D01*
X10834805Y-16034588D02*
X10825282Y-16053636D01*
X10825282Y-16053636D02*
X10815758Y-16063160D01*
X10815758Y-16063160D02*
X10796710Y-16072684D01*
X10796710Y-16072684D02*
X10777663Y-16072684D01*
X10777663Y-16072684D02*
X10758615Y-16063160D01*
X10758615Y-16063160D02*
X10749091Y-16053636D01*
X10749091Y-16053636D02*
X10739567Y-16034588D01*
X10739567Y-16034588D02*
X10730044Y-15996493D01*
X10730044Y-15996493D02*
X10730044Y-15948874D01*
X10730044Y-15948874D02*
X10739567Y-15910779D01*
X10739567Y-15910779D02*
X10749091Y-15891731D01*
X10749091Y-15891731D02*
X10758615Y-15882208D01*
X10758615Y-15882208D02*
X10777663Y-15872684D01*
X10968139Y-15872684D02*
X10987186Y-15872684D01*
X10987186Y-15872684D02*
X11006234Y-15882208D01*
X11006234Y-15882208D02*
X11015758Y-15891731D01*
X11015758Y-15891731D02*
X11025282Y-15910779D01*
X11025282Y-15910779D02*
X11034805Y-15948874D01*
X11034805Y-15948874D02*
X11034805Y-15996493D01*
X11034805Y-15996493D02*
X11025282Y-16034588D01*
X11025282Y-16034588D02*
X11015758Y-16053636D01*
X11015758Y-16053636D02*
X11006234Y-16063160D01*
X11006234Y-16063160D02*
X10987186Y-16072684D01*
X10987186Y-16072684D02*
X10968139Y-16072684D01*
X10968139Y-16072684D02*
X10949091Y-16063160D01*
X10949091Y-16063160D02*
X10939567Y-16053636D01*
X10939567Y-16053636D02*
X10930044Y-16034588D01*
X10930044Y-16034588D02*
X10920520Y-15996493D01*
X10920520Y-15996493D02*
X10920520Y-15948874D01*
X10920520Y-15948874D02*
X10930044Y-15910779D01*
X10930044Y-15910779D02*
X10939567Y-15891731D01*
X10939567Y-15891731D02*
X10949091Y-15882208D01*
X10949091Y-15882208D02*
X10968139Y-15872684D01*
X11120520Y-16072684D02*
X11120520Y-15939350D01*
X11120520Y-15958398D02*
X11130044Y-15948874D01*
X11130044Y-15948874D02*
X11149091Y-15939350D01*
X11149091Y-15939350D02*
X11177663Y-15939350D01*
X11177663Y-15939350D02*
X11196710Y-15948874D01*
X11196710Y-15948874D02*
X11206234Y-15967922D01*
X11206234Y-15967922D02*
X11206234Y-16072684D01*
X11206234Y-15967922D02*
X11215758Y-15948874D01*
X11215758Y-15948874D02*
X11234805Y-15939350D01*
X11234805Y-15939350D02*
X11263377Y-15939350D01*
X11263377Y-15939350D02*
X11282424Y-15948874D01*
X11282424Y-15948874D02*
X11291948Y-15967922D01*
X11291948Y-15967922D02*
X11291948Y-16072684D01*
X11387186Y-16072684D02*
X11387186Y-15939350D01*
X11387186Y-15958398D02*
X11396710Y-15948874D01*
X11396710Y-15948874D02*
X11415758Y-15939350D01*
X11415758Y-15939350D02*
X11444329Y-15939350D01*
X11444329Y-15939350D02*
X11463377Y-15948874D01*
X11463377Y-15948874D02*
X11472901Y-15967922D01*
X11472901Y-15967922D02*
X11472901Y-16072684D01*
X11472901Y-15967922D02*
X11482424Y-15948874D01*
X11482424Y-15948874D02*
X11501472Y-15939350D01*
X11501472Y-15939350D02*
X11530043Y-15939350D01*
X11530043Y-15939350D02*
X11549091Y-15948874D01*
X11549091Y-15948874D02*
X11558615Y-15967922D01*
X11558615Y-15967922D02*
X11558615Y-16072684D01*
X11949091Y-15863160D02*
X11777663Y-16120303D01*
X12206234Y-15872684D02*
X12225282Y-15872684D01*
X12225282Y-15872684D02*
X12244329Y-15882208D01*
X12244329Y-15882208D02*
X12253853Y-15891731D01*
X12253853Y-15891731D02*
X12263377Y-15910779D01*
X12263377Y-15910779D02*
X12272901Y-15948874D01*
X12272901Y-15948874D02*
X12272901Y-15996493D01*
X12272901Y-15996493D02*
X12263377Y-16034588D01*
X12263377Y-16034588D02*
X12253853Y-16053636D01*
X12253853Y-16053636D02*
X12244329Y-16063160D01*
X12244329Y-16063160D02*
X12225282Y-16072684D01*
X12225282Y-16072684D02*
X12206234Y-16072684D01*
X12206234Y-16072684D02*
X12187186Y-16063160D01*
X12187186Y-16063160D02*
X12177663Y-16053636D01*
X12177663Y-16053636D02*
X12168139Y-16034588D01*
X12168139Y-16034588D02*
X12158615Y-15996493D01*
X12158615Y-15996493D02*
X12158615Y-15948874D01*
X12158615Y-15948874D02*
X12168139Y-15910779D01*
X12168139Y-15910779D02*
X12177663Y-15891731D01*
X12177663Y-15891731D02*
X12187186Y-15882208D01*
X12187186Y-15882208D02*
X12206234Y-15872684D01*
X12358615Y-16053636D02*
X12368139Y-16063160D01*
X12368139Y-16063160D02*
X12358615Y-16072684D01*
X12358615Y-16072684D02*
X12349091Y-16063160D01*
X12349091Y-16063160D02*
X12358615Y-16053636D01*
X12358615Y-16053636D02*
X12358615Y-16072684D01*
X12491948Y-15872684D02*
X12510996Y-15872684D01*
X12510996Y-15872684D02*
X12530044Y-15882208D01*
X12530044Y-15882208D02*
X12539567Y-15891731D01*
X12539567Y-15891731D02*
X12549091Y-15910779D01*
X12549091Y-15910779D02*
X12558615Y-15948874D01*
X12558615Y-15948874D02*
X12558615Y-15996493D01*
X12558615Y-15996493D02*
X12549091Y-16034588D01*
X12549091Y-16034588D02*
X12539567Y-16053636D01*
X12539567Y-16053636D02*
X12530044Y-16063160D01*
X12530044Y-16063160D02*
X12510996Y-16072684D01*
X12510996Y-16072684D02*
X12491948Y-16072684D01*
X12491948Y-16072684D02*
X12472901Y-16063160D01*
X12472901Y-16063160D02*
X12463377Y-16053636D01*
X12463377Y-16053636D02*
X12453853Y-16034588D01*
X12453853Y-16034588D02*
X12444329Y-15996493D01*
X12444329Y-15996493D02*
X12444329Y-15948874D01*
X12444329Y-15948874D02*
X12453853Y-15910779D01*
X12453853Y-15910779D02*
X12463377Y-15891731D01*
X12463377Y-15891731D02*
X12472901Y-15882208D01*
X12472901Y-15882208D02*
X12491948Y-15872684D01*
X12625282Y-15872684D02*
X12758615Y-15872684D01*
X12758615Y-15872684D02*
X12672901Y-16072684D01*
X12872901Y-15872684D02*
X12891948Y-15872684D01*
X12891948Y-15872684D02*
X12910996Y-15882208D01*
X12910996Y-15882208D02*
X12920520Y-15891731D01*
X12920520Y-15891731D02*
X12930044Y-15910779D01*
X12930044Y-15910779D02*
X12939567Y-15948874D01*
X12939567Y-15948874D02*
X12939567Y-15996493D01*
X12939567Y-15996493D02*
X12930044Y-16034588D01*
X12930044Y-16034588D02*
X12920520Y-16053636D01*
X12920520Y-16053636D02*
X12910996Y-16063160D01*
X12910996Y-16063160D02*
X12891948Y-16072684D01*
X12891948Y-16072684D02*
X12872901Y-16072684D01*
X12872901Y-16072684D02*
X12853853Y-16063160D01*
X12853853Y-16063160D02*
X12844329Y-16053636D01*
X12844329Y-16053636D02*
X12834806Y-16034588D01*
X12834806Y-16034588D02*
X12825282Y-15996493D01*
X12825282Y-15996493D02*
X12825282Y-15948874D01*
X12825282Y-15948874D02*
X12834806Y-15910779D01*
X12834806Y-15910779D02*
X12844329Y-15891731D01*
X12844329Y-15891731D02*
X12853853Y-15882208D01*
X12853853Y-15882208D02*
X12872901Y-15872684D01*
X13034806Y-16072684D02*
X13072901Y-16072684D01*
X13072901Y-16072684D02*
X13091948Y-16063160D01*
X13091948Y-16063160D02*
X13101472Y-16053636D01*
X13101472Y-16053636D02*
X13120520Y-16025065D01*
X13120520Y-16025065D02*
X13130044Y-15986969D01*
X13130044Y-15986969D02*
X13130044Y-15910779D01*
X13130044Y-15910779D02*
X13120520Y-15891731D01*
X13120520Y-15891731D02*
X13110996Y-15882208D01*
X13110996Y-15882208D02*
X13091948Y-15872684D01*
X13091948Y-15872684D02*
X13053853Y-15872684D01*
X13053853Y-15872684D02*
X13034806Y-15882208D01*
X13034806Y-15882208D02*
X13025282Y-15891731D01*
X13025282Y-15891731D02*
X13015758Y-15910779D01*
X13015758Y-15910779D02*
X13015758Y-15958398D01*
X13015758Y-15958398D02*
X13025282Y-15977446D01*
X13025282Y-15977446D02*
X13034806Y-15986969D01*
X13034806Y-15986969D02*
X13053853Y-15996493D01*
X13053853Y-15996493D02*
X13091948Y-15996493D01*
X13091948Y-15996493D02*
X13110996Y-15986969D01*
X13110996Y-15986969D02*
X13120520Y-15977446D01*
X13120520Y-15977446D02*
X13130044Y-15958398D01*
X13206234Y-15872684D02*
X13206234Y-15910779D01*
X13282425Y-15872684D02*
X13282425Y-15910779D01*
X13577663Y-16148874D02*
X13568139Y-16139350D01*
X13568139Y-16139350D02*
X13549091Y-16110779D01*
X13549091Y-16110779D02*
X13539568Y-16091731D01*
X13539568Y-16091731D02*
X13530044Y-16063160D01*
X13530044Y-16063160D02*
X13520520Y-16015541D01*
X13520520Y-16015541D02*
X13520520Y-15977446D01*
X13520520Y-15977446D02*
X13530044Y-15929827D01*
X13530044Y-15929827D02*
X13539568Y-15901255D01*
X13539568Y-15901255D02*
X13549091Y-15882208D01*
X13549091Y-15882208D02*
X13568139Y-15853636D01*
X13568139Y-15853636D02*
X13577663Y-15844112D01*
X13663377Y-16072684D02*
X13701472Y-16072684D01*
X13701472Y-16072684D02*
X13720520Y-16063160D01*
X13720520Y-16063160D02*
X13730044Y-16053636D01*
X13730044Y-16053636D02*
X13749091Y-16025065D01*
X13749091Y-16025065D02*
X13758615Y-15986969D01*
X13758615Y-15986969D02*
X13758615Y-15910779D01*
X13758615Y-15910779D02*
X13749091Y-15891731D01*
X13749091Y-15891731D02*
X13739568Y-15882208D01*
X13739568Y-15882208D02*
X13720520Y-15872684D01*
X13720520Y-15872684D02*
X13682425Y-15872684D01*
X13682425Y-15872684D02*
X13663377Y-15882208D01*
X13663377Y-15882208D02*
X13653853Y-15891731D01*
X13653853Y-15891731D02*
X13644329Y-15910779D01*
X13644329Y-15910779D02*
X13644329Y-15958398D01*
X13644329Y-15958398D02*
X13653853Y-15977446D01*
X13653853Y-15977446D02*
X13663377Y-15986969D01*
X13663377Y-15986969D02*
X13682425Y-15996493D01*
X13682425Y-15996493D02*
X13720520Y-15996493D01*
X13720520Y-15996493D02*
X13739568Y-15986969D01*
X13739568Y-15986969D02*
X13749091Y-15977446D01*
X13749091Y-15977446D02*
X13758615Y-15958398D01*
X13996710Y-16072684D02*
X13996710Y-15872684D01*
X14082425Y-16072684D02*
X14082425Y-15967922D01*
X14082425Y-15967922D02*
X14072901Y-15948874D01*
X14072901Y-15948874D02*
X14053853Y-15939350D01*
X14053853Y-15939350D02*
X14025282Y-15939350D01*
X14025282Y-15939350D02*
X14006234Y-15948874D01*
X14006234Y-15948874D02*
X13996710Y-15958398D01*
X14206234Y-16072684D02*
X14187187Y-16063160D01*
X14187187Y-16063160D02*
X14177663Y-16053636D01*
X14177663Y-16053636D02*
X14168139Y-16034588D01*
X14168139Y-16034588D02*
X14168139Y-15977446D01*
X14168139Y-15977446D02*
X14177663Y-15958398D01*
X14177663Y-15958398D02*
X14187187Y-15948874D01*
X14187187Y-15948874D02*
X14206234Y-15939350D01*
X14206234Y-15939350D02*
X14234806Y-15939350D01*
X14234806Y-15939350D02*
X14253853Y-15948874D01*
X14253853Y-15948874D02*
X14263377Y-15958398D01*
X14263377Y-15958398D02*
X14272901Y-15977446D01*
X14272901Y-15977446D02*
X14272901Y-16034588D01*
X14272901Y-16034588D02*
X14263377Y-16053636D01*
X14263377Y-16053636D02*
X14253853Y-16063160D01*
X14253853Y-16063160D02*
X14234806Y-16072684D01*
X14234806Y-16072684D02*
X14206234Y-16072684D01*
X14387187Y-16072684D02*
X14368139Y-16063160D01*
X14368139Y-16063160D02*
X14358615Y-16044112D01*
X14358615Y-16044112D02*
X14358615Y-15872684D01*
X14539568Y-16063160D02*
X14520520Y-16072684D01*
X14520520Y-16072684D02*
X14482425Y-16072684D01*
X14482425Y-16072684D02*
X14463377Y-16063160D01*
X14463377Y-16063160D02*
X14453853Y-16044112D01*
X14453853Y-16044112D02*
X14453853Y-15967922D01*
X14453853Y-15967922D02*
X14463377Y-15948874D01*
X14463377Y-15948874D02*
X14482425Y-15939350D01*
X14482425Y-15939350D02*
X14520520Y-15939350D01*
X14520520Y-15939350D02*
X14539568Y-15948874D01*
X14539568Y-15948874D02*
X14549091Y-15967922D01*
X14549091Y-15967922D02*
X14549091Y-15986969D01*
X14549091Y-15986969D02*
X14453853Y-16006017D01*
X14625282Y-16063160D02*
X14644330Y-16072684D01*
X14644330Y-16072684D02*
X14682425Y-16072684D01*
X14682425Y-16072684D02*
X14701472Y-16063160D01*
X14701472Y-16063160D02*
X14710996Y-16044112D01*
X14710996Y-16044112D02*
X14710996Y-16034588D01*
X14710996Y-16034588D02*
X14701472Y-16015541D01*
X14701472Y-16015541D02*
X14682425Y-16006017D01*
X14682425Y-16006017D02*
X14653853Y-16006017D01*
X14653853Y-16006017D02*
X14634806Y-15996493D01*
X14634806Y-15996493D02*
X14625282Y-15977446D01*
X14625282Y-15977446D02*
X14625282Y-15967922D01*
X14625282Y-15967922D02*
X14634806Y-15948874D01*
X14634806Y-15948874D02*
X14653853Y-15939350D01*
X14653853Y-15939350D02*
X14682425Y-15939350D01*
X14682425Y-15939350D02*
X14701472Y-15948874D01*
X14777663Y-16148874D02*
X14787187Y-16139350D01*
X14787187Y-16139350D02*
X14806234Y-16110779D01*
X14806234Y-16110779D02*
X14815758Y-16091731D01*
X14815758Y-16091731D02*
X14825282Y-16063160D01*
X14825282Y-16063160D02*
X14834806Y-16015541D01*
X14834806Y-16015541D02*
X14834806Y-15977446D01*
X14834806Y-15977446D02*
X14825282Y-15929827D01*
X14825282Y-15929827D02*
X14815758Y-15901255D01*
X14815758Y-15901255D02*
X14806234Y-15882208D01*
X14806234Y-15882208D02*
X14787187Y-15853636D01*
X14787187Y-15853636D02*
X14777663Y-15844112D01*
X9973311Y-16351911D02*
X9973311Y-16210489D01*
X9831889Y-16210489D01*
X9831889Y-16351911D01*
X9973311Y-16351911D01*
X10253853Y-16191731D02*
X10263377Y-16182208D01*
X10263377Y-16182208D02*
X10282424Y-16172684D01*
X10282424Y-16172684D02*
X10330044Y-16172684D01*
X10330044Y-16172684D02*
X10349091Y-16182208D01*
X10349091Y-16182208D02*
X10358615Y-16191731D01*
X10358615Y-16191731D02*
X10368139Y-16210779D01*
X10368139Y-16210779D02*
X10368139Y-16229827D01*
X10368139Y-16229827D02*
X10358615Y-16258398D01*
X10358615Y-16258398D02*
X10244329Y-16372684D01*
X10244329Y-16372684D02*
X10368139Y-16372684D01*
X10453853Y-16353636D02*
X10463377Y-16363160D01*
X10463377Y-16363160D02*
X10453853Y-16372684D01*
X10453853Y-16372684D02*
X10444329Y-16363160D01*
X10444329Y-16363160D02*
X10453853Y-16353636D01*
X10453853Y-16353636D02*
X10453853Y-16372684D01*
X10653853Y-16372684D02*
X10539567Y-16372684D01*
X10596710Y-16372684D02*
X10596710Y-16172684D01*
X10596710Y-16172684D02*
X10577663Y-16201255D01*
X10577663Y-16201255D02*
X10558615Y-16220303D01*
X10558615Y-16220303D02*
X10539567Y-16229827D01*
X10768139Y-16258398D02*
X10749091Y-16248874D01*
X10749091Y-16248874D02*
X10739567Y-16239350D01*
X10739567Y-16239350D02*
X10730044Y-16220303D01*
X10730044Y-16220303D02*
X10730044Y-16210779D01*
X10730044Y-16210779D02*
X10739567Y-16191731D01*
X10739567Y-16191731D02*
X10749091Y-16182208D01*
X10749091Y-16182208D02*
X10768139Y-16172684D01*
X10768139Y-16172684D02*
X10806234Y-16172684D01*
X10806234Y-16172684D02*
X10825282Y-16182208D01*
X10825282Y-16182208D02*
X10834805Y-16191731D01*
X10834805Y-16191731D02*
X10844329Y-16210779D01*
X10844329Y-16210779D02*
X10844329Y-16220303D01*
X10844329Y-16220303D02*
X10834805Y-16239350D01*
X10834805Y-16239350D02*
X10825282Y-16248874D01*
X10825282Y-16248874D02*
X10806234Y-16258398D01*
X10806234Y-16258398D02*
X10768139Y-16258398D01*
X10768139Y-16258398D02*
X10749091Y-16267922D01*
X10749091Y-16267922D02*
X10739567Y-16277446D01*
X10739567Y-16277446D02*
X10730044Y-16296493D01*
X10730044Y-16296493D02*
X10730044Y-16334588D01*
X10730044Y-16334588D02*
X10739567Y-16353636D01*
X10739567Y-16353636D02*
X10749091Y-16363160D01*
X10749091Y-16363160D02*
X10768139Y-16372684D01*
X10768139Y-16372684D02*
X10806234Y-16372684D01*
X10806234Y-16372684D02*
X10825282Y-16363160D01*
X10825282Y-16363160D02*
X10834805Y-16353636D01*
X10834805Y-16353636D02*
X10844329Y-16334588D01*
X10844329Y-16334588D02*
X10844329Y-16296493D01*
X10844329Y-16296493D02*
X10834805Y-16277446D01*
X10834805Y-16277446D02*
X10825282Y-16267922D01*
X10825282Y-16267922D02*
X10806234Y-16258398D01*
X11015758Y-16239350D02*
X11015758Y-16372684D01*
X10968139Y-16163160D02*
X10920520Y-16306017D01*
X10920520Y-16306017D02*
X11044329Y-16306017D01*
X11120520Y-16372684D02*
X11120520Y-16239350D01*
X11120520Y-16258398D02*
X11130044Y-16248874D01*
X11130044Y-16248874D02*
X11149091Y-16239350D01*
X11149091Y-16239350D02*
X11177663Y-16239350D01*
X11177663Y-16239350D02*
X11196710Y-16248874D01*
X11196710Y-16248874D02*
X11206234Y-16267922D01*
X11206234Y-16267922D02*
X11206234Y-16372684D01*
X11206234Y-16267922D02*
X11215758Y-16248874D01*
X11215758Y-16248874D02*
X11234805Y-16239350D01*
X11234805Y-16239350D02*
X11263377Y-16239350D01*
X11263377Y-16239350D02*
X11282424Y-16248874D01*
X11282424Y-16248874D02*
X11291948Y-16267922D01*
X11291948Y-16267922D02*
X11291948Y-16372684D01*
X11387186Y-16372684D02*
X11387186Y-16239350D01*
X11387186Y-16258398D02*
X11396710Y-16248874D01*
X11396710Y-16248874D02*
X11415758Y-16239350D01*
X11415758Y-16239350D02*
X11444329Y-16239350D01*
X11444329Y-16239350D02*
X11463377Y-16248874D01*
X11463377Y-16248874D02*
X11472901Y-16267922D01*
X11472901Y-16267922D02*
X11472901Y-16372684D01*
X11472901Y-16267922D02*
X11482424Y-16248874D01*
X11482424Y-16248874D02*
X11501472Y-16239350D01*
X11501472Y-16239350D02*
X11530043Y-16239350D01*
X11530043Y-16239350D02*
X11549091Y-16248874D01*
X11549091Y-16248874D02*
X11558615Y-16267922D01*
X11558615Y-16267922D02*
X11558615Y-16372684D01*
X11949091Y-16163160D02*
X11777663Y-16420303D01*
X12206234Y-16172684D02*
X12225282Y-16172684D01*
X12225282Y-16172684D02*
X12244329Y-16182208D01*
X12244329Y-16182208D02*
X12253853Y-16191731D01*
X12253853Y-16191731D02*
X12263377Y-16210779D01*
X12263377Y-16210779D02*
X12272901Y-16248874D01*
X12272901Y-16248874D02*
X12272901Y-16296493D01*
X12272901Y-16296493D02*
X12263377Y-16334588D01*
X12263377Y-16334588D02*
X12253853Y-16353636D01*
X12253853Y-16353636D02*
X12244329Y-16363160D01*
X12244329Y-16363160D02*
X12225282Y-16372684D01*
X12225282Y-16372684D02*
X12206234Y-16372684D01*
X12206234Y-16372684D02*
X12187186Y-16363160D01*
X12187186Y-16363160D02*
X12177663Y-16353636D01*
X12177663Y-16353636D02*
X12168139Y-16334588D01*
X12168139Y-16334588D02*
X12158615Y-16296493D01*
X12158615Y-16296493D02*
X12158615Y-16248874D01*
X12158615Y-16248874D02*
X12168139Y-16210779D01*
X12168139Y-16210779D02*
X12177663Y-16191731D01*
X12177663Y-16191731D02*
X12187186Y-16182208D01*
X12187186Y-16182208D02*
X12206234Y-16172684D01*
X12358615Y-16353636D02*
X12368139Y-16363160D01*
X12368139Y-16363160D02*
X12358615Y-16372684D01*
X12358615Y-16372684D02*
X12349091Y-16363160D01*
X12349091Y-16363160D02*
X12358615Y-16353636D01*
X12358615Y-16353636D02*
X12358615Y-16372684D01*
X12491948Y-16172684D02*
X12510996Y-16172684D01*
X12510996Y-16172684D02*
X12530044Y-16182208D01*
X12530044Y-16182208D02*
X12539567Y-16191731D01*
X12539567Y-16191731D02*
X12549091Y-16210779D01*
X12549091Y-16210779D02*
X12558615Y-16248874D01*
X12558615Y-16248874D02*
X12558615Y-16296493D01*
X12558615Y-16296493D02*
X12549091Y-16334588D01*
X12549091Y-16334588D02*
X12539567Y-16353636D01*
X12539567Y-16353636D02*
X12530044Y-16363160D01*
X12530044Y-16363160D02*
X12510996Y-16372684D01*
X12510996Y-16372684D02*
X12491948Y-16372684D01*
X12491948Y-16372684D02*
X12472901Y-16363160D01*
X12472901Y-16363160D02*
X12463377Y-16353636D01*
X12463377Y-16353636D02*
X12453853Y-16334588D01*
X12453853Y-16334588D02*
X12444329Y-16296493D01*
X12444329Y-16296493D02*
X12444329Y-16248874D01*
X12444329Y-16248874D02*
X12453853Y-16210779D01*
X12453853Y-16210779D02*
X12463377Y-16191731D01*
X12463377Y-16191731D02*
X12472901Y-16182208D01*
X12472901Y-16182208D02*
X12491948Y-16172684D01*
X12672901Y-16258398D02*
X12653853Y-16248874D01*
X12653853Y-16248874D02*
X12644329Y-16239350D01*
X12644329Y-16239350D02*
X12634806Y-16220303D01*
X12634806Y-16220303D02*
X12634806Y-16210779D01*
X12634806Y-16210779D02*
X12644329Y-16191731D01*
X12644329Y-16191731D02*
X12653853Y-16182208D01*
X12653853Y-16182208D02*
X12672901Y-16172684D01*
X12672901Y-16172684D02*
X12710996Y-16172684D01*
X12710996Y-16172684D02*
X12730044Y-16182208D01*
X12730044Y-16182208D02*
X12739567Y-16191731D01*
X12739567Y-16191731D02*
X12749091Y-16210779D01*
X12749091Y-16210779D02*
X12749091Y-16220303D01*
X12749091Y-16220303D02*
X12739567Y-16239350D01*
X12739567Y-16239350D02*
X12730044Y-16248874D01*
X12730044Y-16248874D02*
X12710996Y-16258398D01*
X12710996Y-16258398D02*
X12672901Y-16258398D01*
X12672901Y-16258398D02*
X12653853Y-16267922D01*
X12653853Y-16267922D02*
X12644329Y-16277446D01*
X12644329Y-16277446D02*
X12634806Y-16296493D01*
X12634806Y-16296493D02*
X12634806Y-16334588D01*
X12634806Y-16334588D02*
X12644329Y-16353636D01*
X12644329Y-16353636D02*
X12653853Y-16363160D01*
X12653853Y-16363160D02*
X12672901Y-16372684D01*
X12672901Y-16372684D02*
X12710996Y-16372684D01*
X12710996Y-16372684D02*
X12730044Y-16363160D01*
X12730044Y-16363160D02*
X12739567Y-16353636D01*
X12739567Y-16353636D02*
X12749091Y-16334588D01*
X12749091Y-16334588D02*
X12749091Y-16296493D01*
X12749091Y-16296493D02*
X12739567Y-16277446D01*
X12739567Y-16277446D02*
X12730044Y-16267922D01*
X12730044Y-16267922D02*
X12710996Y-16258398D01*
X12920520Y-16172684D02*
X12882425Y-16172684D01*
X12882425Y-16172684D02*
X12863377Y-16182208D01*
X12863377Y-16182208D02*
X12853853Y-16191731D01*
X12853853Y-16191731D02*
X12834806Y-16220303D01*
X12834806Y-16220303D02*
X12825282Y-16258398D01*
X12825282Y-16258398D02*
X12825282Y-16334588D01*
X12825282Y-16334588D02*
X12834806Y-16353636D01*
X12834806Y-16353636D02*
X12844329Y-16363160D01*
X12844329Y-16363160D02*
X12863377Y-16372684D01*
X12863377Y-16372684D02*
X12901472Y-16372684D01*
X12901472Y-16372684D02*
X12920520Y-16363160D01*
X12920520Y-16363160D02*
X12930044Y-16353636D01*
X12930044Y-16353636D02*
X12939567Y-16334588D01*
X12939567Y-16334588D02*
X12939567Y-16286969D01*
X12939567Y-16286969D02*
X12930044Y-16267922D01*
X12930044Y-16267922D02*
X12920520Y-16258398D01*
X12920520Y-16258398D02*
X12901472Y-16248874D01*
X12901472Y-16248874D02*
X12863377Y-16248874D01*
X12863377Y-16248874D02*
X12844329Y-16258398D01*
X12844329Y-16258398D02*
X12834806Y-16267922D01*
X12834806Y-16267922D02*
X12825282Y-16286969D01*
X13063377Y-16172684D02*
X13082425Y-16172684D01*
X13082425Y-16172684D02*
X13101472Y-16182208D01*
X13101472Y-16182208D02*
X13110996Y-16191731D01*
X13110996Y-16191731D02*
X13120520Y-16210779D01*
X13120520Y-16210779D02*
X13130044Y-16248874D01*
X13130044Y-16248874D02*
X13130044Y-16296493D01*
X13130044Y-16296493D02*
X13120520Y-16334588D01*
X13120520Y-16334588D02*
X13110996Y-16353636D01*
X13110996Y-16353636D02*
X13101472Y-16363160D01*
X13101472Y-16363160D02*
X13082425Y-16372684D01*
X13082425Y-16372684D02*
X13063377Y-16372684D01*
X13063377Y-16372684D02*
X13044329Y-16363160D01*
X13044329Y-16363160D02*
X13034806Y-16353636D01*
X13034806Y-16353636D02*
X13025282Y-16334588D01*
X13025282Y-16334588D02*
X13015758Y-16296493D01*
X13015758Y-16296493D02*
X13015758Y-16248874D01*
X13015758Y-16248874D02*
X13025282Y-16210779D01*
X13025282Y-16210779D02*
X13034806Y-16191731D01*
X13034806Y-16191731D02*
X13044329Y-16182208D01*
X13044329Y-16182208D02*
X13063377Y-16172684D01*
X13206234Y-16172684D02*
X13206234Y-16210779D01*
X13282425Y-16172684D02*
X13282425Y-16210779D01*
X13577663Y-16448874D02*
X13568139Y-16439350D01*
X13568139Y-16439350D02*
X13549091Y-16410779D01*
X13549091Y-16410779D02*
X13539568Y-16391731D01*
X13539568Y-16391731D02*
X13530044Y-16363160D01*
X13530044Y-16363160D02*
X13520520Y-16315541D01*
X13520520Y-16315541D02*
X13520520Y-16277446D01*
X13520520Y-16277446D02*
X13530044Y-16229827D01*
X13530044Y-16229827D02*
X13539568Y-16201255D01*
X13539568Y-16201255D02*
X13549091Y-16182208D01*
X13549091Y-16182208D02*
X13568139Y-16153636D01*
X13568139Y-16153636D02*
X13577663Y-16144112D01*
X13682425Y-16258398D02*
X13663377Y-16248874D01*
X13663377Y-16248874D02*
X13653853Y-16239350D01*
X13653853Y-16239350D02*
X13644329Y-16220303D01*
X13644329Y-16220303D02*
X13644329Y-16210779D01*
X13644329Y-16210779D02*
X13653853Y-16191731D01*
X13653853Y-16191731D02*
X13663377Y-16182208D01*
X13663377Y-16182208D02*
X13682425Y-16172684D01*
X13682425Y-16172684D02*
X13720520Y-16172684D01*
X13720520Y-16172684D02*
X13739568Y-16182208D01*
X13739568Y-16182208D02*
X13749091Y-16191731D01*
X13749091Y-16191731D02*
X13758615Y-16210779D01*
X13758615Y-16210779D02*
X13758615Y-16220303D01*
X13758615Y-16220303D02*
X13749091Y-16239350D01*
X13749091Y-16239350D02*
X13739568Y-16248874D01*
X13739568Y-16248874D02*
X13720520Y-16258398D01*
X13720520Y-16258398D02*
X13682425Y-16258398D01*
X13682425Y-16258398D02*
X13663377Y-16267922D01*
X13663377Y-16267922D02*
X13653853Y-16277446D01*
X13653853Y-16277446D02*
X13644329Y-16296493D01*
X13644329Y-16296493D02*
X13644329Y-16334588D01*
X13644329Y-16334588D02*
X13653853Y-16353636D01*
X13653853Y-16353636D02*
X13663377Y-16363160D01*
X13663377Y-16363160D02*
X13682425Y-16372684D01*
X13682425Y-16372684D02*
X13720520Y-16372684D01*
X13720520Y-16372684D02*
X13739568Y-16363160D01*
X13739568Y-16363160D02*
X13749091Y-16353636D01*
X13749091Y-16353636D02*
X13758615Y-16334588D01*
X13758615Y-16334588D02*
X13758615Y-16296493D01*
X13758615Y-16296493D02*
X13749091Y-16277446D01*
X13749091Y-16277446D02*
X13739568Y-16267922D01*
X13739568Y-16267922D02*
X13720520Y-16258398D01*
X13996710Y-16372684D02*
X13996710Y-16172684D01*
X14082425Y-16372684D02*
X14082425Y-16267922D01*
X14082425Y-16267922D02*
X14072901Y-16248874D01*
X14072901Y-16248874D02*
X14053853Y-16239350D01*
X14053853Y-16239350D02*
X14025282Y-16239350D01*
X14025282Y-16239350D02*
X14006234Y-16248874D01*
X14006234Y-16248874D02*
X13996710Y-16258398D01*
X14206234Y-16372684D02*
X14187187Y-16363160D01*
X14187187Y-16363160D02*
X14177663Y-16353636D01*
X14177663Y-16353636D02*
X14168139Y-16334588D01*
X14168139Y-16334588D02*
X14168139Y-16277446D01*
X14168139Y-16277446D02*
X14177663Y-16258398D01*
X14177663Y-16258398D02*
X14187187Y-16248874D01*
X14187187Y-16248874D02*
X14206234Y-16239350D01*
X14206234Y-16239350D02*
X14234806Y-16239350D01*
X14234806Y-16239350D02*
X14253853Y-16248874D01*
X14253853Y-16248874D02*
X14263377Y-16258398D01*
X14263377Y-16258398D02*
X14272901Y-16277446D01*
X14272901Y-16277446D02*
X14272901Y-16334588D01*
X14272901Y-16334588D02*
X14263377Y-16353636D01*
X14263377Y-16353636D02*
X14253853Y-16363160D01*
X14253853Y-16363160D02*
X14234806Y-16372684D01*
X14234806Y-16372684D02*
X14206234Y-16372684D01*
X14387187Y-16372684D02*
X14368139Y-16363160D01*
X14368139Y-16363160D02*
X14358615Y-16344112D01*
X14358615Y-16344112D02*
X14358615Y-16172684D01*
X14539568Y-16363160D02*
X14520520Y-16372684D01*
X14520520Y-16372684D02*
X14482425Y-16372684D01*
X14482425Y-16372684D02*
X14463377Y-16363160D01*
X14463377Y-16363160D02*
X14453853Y-16344112D01*
X14453853Y-16344112D02*
X14453853Y-16267922D01*
X14453853Y-16267922D02*
X14463377Y-16248874D01*
X14463377Y-16248874D02*
X14482425Y-16239350D01*
X14482425Y-16239350D02*
X14520520Y-16239350D01*
X14520520Y-16239350D02*
X14539568Y-16248874D01*
X14539568Y-16248874D02*
X14549091Y-16267922D01*
X14549091Y-16267922D02*
X14549091Y-16286969D01*
X14549091Y-16286969D02*
X14453853Y-16306017D01*
X14625282Y-16363160D02*
X14644330Y-16372684D01*
X14644330Y-16372684D02*
X14682425Y-16372684D01*
X14682425Y-16372684D02*
X14701472Y-16363160D01*
X14701472Y-16363160D02*
X14710996Y-16344112D01*
X14710996Y-16344112D02*
X14710996Y-16334588D01*
X14710996Y-16334588D02*
X14701472Y-16315541D01*
X14701472Y-16315541D02*
X14682425Y-16306017D01*
X14682425Y-16306017D02*
X14653853Y-16306017D01*
X14653853Y-16306017D02*
X14634806Y-16296493D01*
X14634806Y-16296493D02*
X14625282Y-16277446D01*
X14625282Y-16277446D02*
X14625282Y-16267922D01*
X14625282Y-16267922D02*
X14634806Y-16248874D01*
X14634806Y-16248874D02*
X14653853Y-16239350D01*
X14653853Y-16239350D02*
X14682425Y-16239350D01*
X14682425Y-16239350D02*
X14701472Y-16248874D01*
X14777663Y-16448874D02*
X14787187Y-16439350D01*
X14787187Y-16439350D02*
X14806234Y-16410779D01*
X14806234Y-16410779D02*
X14815758Y-16391731D01*
X14815758Y-16391731D02*
X14825282Y-16363160D01*
X14825282Y-16363160D02*
X14834806Y-16315541D01*
X14834806Y-16315541D02*
X14834806Y-16277446D01*
X14834806Y-16277446D02*
X14825282Y-16229827D01*
X14825282Y-16229827D02*
X14815758Y-16201255D01*
X14815758Y-16201255D02*
X14806234Y-16182208D01*
X14806234Y-16182208D02*
X14787187Y-16153636D01*
X14787187Y-16153636D02*
X14777663Y-16144112D01*
M02*
