%TF.GenerationSoftware,KiCad,Pcbnew,7.0.10-7.0.10~ubuntu22.04.1*%
%TF.CreationDate,2024-01-16T19:58:32-05:00*%
%TF.ProjectId,sys11-c11998-relay,73797331-312d-4633-9131-3939382d7265,1.0*%
%TF.SameCoordinates,Original*%
%TF.FileFunction,Legend,Top*%
%TF.FilePolarity,Positive*%
%FSLAX46Y46*%
G04 Gerber Fmt 4.6, Leading zero omitted, Abs format (unit mm)*
G04 Created by KiCad (PCBNEW 7.0.10-7.0.10~ubuntu22.04.1) date 2024-01-16 19:58:32*
%MOMM*%
%LPD*%
G01*
G04 APERTURE LIST*
G04 Aperture macros list*
%AMRoundRect*
0 Rectangle with rounded corners*
0 $1 Rounding radius*
0 $2 $3 $4 $5 $6 $7 $8 $9 X,Y pos of 4 corners*
0 Add a 4 corners polygon primitive as box body*
4,1,4,$2,$3,$4,$5,$6,$7,$8,$9,$2,$3,0*
0 Add four circle primitives for the rounded corners*
1,1,$1+$1,$2,$3*
1,1,$1+$1,$4,$5*
1,1,$1+$1,$6,$7*
1,1,$1+$1,$8,$9*
0 Add four rect primitives between the rounded corners*
20,1,$1+$1,$2,$3,$4,$5,0*
20,1,$1+$1,$4,$5,$6,$7,0*
20,1,$1+$1,$6,$7,$8,$9,0*
20,1,$1+$1,$8,$9,$2,$3,0*%
G04 Aperture macros list end*
%ADD10C,0.150000*%
%ADD11C,0.120000*%
%ADD12C,0.152400*%
%ADD13C,3.200000*%
%ADD14C,1.600000*%
%ADD15O,1.600000X1.600000*%
%ADD16O,3.160000X5.000000*%
%ADD17RoundRect,0.250000X1.330000X3.750000X-1.330000X3.750000X-1.330000X-3.750000X1.330000X-3.750000X0*%
%ADD18O,3.160000X8.000000*%
%ADD19R,2.200000X2.200000*%
%ADD20O,2.200000X2.200000*%
G04 APERTURE END LIST*
D10*
X119700731Y-104331961D02*
X119605493Y-104427200D01*
X119605493Y-104427200D02*
X119319779Y-104522438D01*
X119319779Y-104522438D02*
X119129303Y-104522438D01*
X119129303Y-104522438D02*
X118843588Y-104427200D01*
X118843588Y-104427200D02*
X118653112Y-104236723D01*
X118653112Y-104236723D02*
X118557874Y-104046247D01*
X118557874Y-104046247D02*
X118462636Y-103665295D01*
X118462636Y-103665295D02*
X118462636Y-103379580D01*
X118462636Y-103379580D02*
X118557874Y-102998628D01*
X118557874Y-102998628D02*
X118653112Y-102808152D01*
X118653112Y-102808152D02*
X118843588Y-102617676D01*
X118843588Y-102617676D02*
X119129303Y-102522438D01*
X119129303Y-102522438D02*
X119319779Y-102522438D01*
X119319779Y-102522438D02*
X119605493Y-102617676D01*
X119605493Y-102617676D02*
X119700731Y-102712914D01*
X120557874Y-103760533D02*
X122081684Y-103760533D01*
X124081683Y-104522438D02*
X122938826Y-104522438D01*
X123510254Y-104522438D02*
X123510254Y-102522438D01*
X123510254Y-102522438D02*
X123319778Y-102808152D01*
X123319778Y-102808152D02*
X123129302Y-102998628D01*
X123129302Y-102998628D02*
X122938826Y-103093866D01*
X125986445Y-104522438D02*
X124843588Y-104522438D01*
X125415016Y-104522438D02*
X125415016Y-102522438D01*
X125415016Y-102522438D02*
X125224540Y-102808152D01*
X125224540Y-102808152D02*
X125034064Y-102998628D01*
X125034064Y-102998628D02*
X124843588Y-103093866D01*
X126938826Y-104522438D02*
X127319778Y-104522438D01*
X127319778Y-104522438D02*
X127510255Y-104427200D01*
X127510255Y-104427200D02*
X127605493Y-104331961D01*
X127605493Y-104331961D02*
X127795969Y-104046247D01*
X127795969Y-104046247D02*
X127891207Y-103665295D01*
X127891207Y-103665295D02*
X127891207Y-102903390D01*
X127891207Y-102903390D02*
X127795969Y-102712914D01*
X127795969Y-102712914D02*
X127700731Y-102617676D01*
X127700731Y-102617676D02*
X127510255Y-102522438D01*
X127510255Y-102522438D02*
X127129302Y-102522438D01*
X127129302Y-102522438D02*
X126938826Y-102617676D01*
X126938826Y-102617676D02*
X126843588Y-102712914D01*
X126843588Y-102712914D02*
X126748350Y-102903390D01*
X126748350Y-102903390D02*
X126748350Y-103379580D01*
X126748350Y-103379580D02*
X126843588Y-103570057D01*
X126843588Y-103570057D02*
X126938826Y-103665295D01*
X126938826Y-103665295D02*
X127129302Y-103760533D01*
X127129302Y-103760533D02*
X127510255Y-103760533D01*
X127510255Y-103760533D02*
X127700731Y-103665295D01*
X127700731Y-103665295D02*
X127795969Y-103570057D01*
X127795969Y-103570057D02*
X127891207Y-103379580D01*
X128843588Y-104522438D02*
X129224540Y-104522438D01*
X129224540Y-104522438D02*
X129415017Y-104427200D01*
X129415017Y-104427200D02*
X129510255Y-104331961D01*
X129510255Y-104331961D02*
X129700731Y-104046247D01*
X129700731Y-104046247D02*
X129795969Y-103665295D01*
X129795969Y-103665295D02*
X129795969Y-102903390D01*
X129795969Y-102903390D02*
X129700731Y-102712914D01*
X129700731Y-102712914D02*
X129605493Y-102617676D01*
X129605493Y-102617676D02*
X129415017Y-102522438D01*
X129415017Y-102522438D02*
X129034064Y-102522438D01*
X129034064Y-102522438D02*
X128843588Y-102617676D01*
X128843588Y-102617676D02*
X128748350Y-102712914D01*
X128748350Y-102712914D02*
X128653112Y-102903390D01*
X128653112Y-102903390D02*
X128653112Y-103379580D01*
X128653112Y-103379580D02*
X128748350Y-103570057D01*
X128748350Y-103570057D02*
X128843588Y-103665295D01*
X128843588Y-103665295D02*
X129034064Y-103760533D01*
X129034064Y-103760533D02*
X129415017Y-103760533D01*
X129415017Y-103760533D02*
X129605493Y-103665295D01*
X129605493Y-103665295D02*
X129700731Y-103570057D01*
X129700731Y-103570057D02*
X129795969Y-103379580D01*
X130938826Y-103379580D02*
X130748350Y-103284342D01*
X130748350Y-103284342D02*
X130653112Y-103189104D01*
X130653112Y-103189104D02*
X130557874Y-102998628D01*
X130557874Y-102998628D02*
X130557874Y-102903390D01*
X130557874Y-102903390D02*
X130653112Y-102712914D01*
X130653112Y-102712914D02*
X130748350Y-102617676D01*
X130748350Y-102617676D02*
X130938826Y-102522438D01*
X130938826Y-102522438D02*
X131319779Y-102522438D01*
X131319779Y-102522438D02*
X131510255Y-102617676D01*
X131510255Y-102617676D02*
X131605493Y-102712914D01*
X131605493Y-102712914D02*
X131700731Y-102903390D01*
X131700731Y-102903390D02*
X131700731Y-102998628D01*
X131700731Y-102998628D02*
X131605493Y-103189104D01*
X131605493Y-103189104D02*
X131510255Y-103284342D01*
X131510255Y-103284342D02*
X131319779Y-103379580D01*
X131319779Y-103379580D02*
X130938826Y-103379580D01*
X130938826Y-103379580D02*
X130748350Y-103474819D01*
X130748350Y-103474819D02*
X130653112Y-103570057D01*
X130653112Y-103570057D02*
X130557874Y-103760533D01*
X130557874Y-103760533D02*
X130557874Y-104141485D01*
X130557874Y-104141485D02*
X130653112Y-104331961D01*
X130653112Y-104331961D02*
X130748350Y-104427200D01*
X130748350Y-104427200D02*
X130938826Y-104522438D01*
X130938826Y-104522438D02*
X131319779Y-104522438D01*
X131319779Y-104522438D02*
X131510255Y-104427200D01*
X131510255Y-104427200D02*
X131605493Y-104331961D01*
X131605493Y-104331961D02*
X131700731Y-104141485D01*
X131700731Y-104141485D02*
X131700731Y-103760533D01*
X131700731Y-103760533D02*
X131605493Y-103570057D01*
X131605493Y-103570057D02*
X131510255Y-103474819D01*
X131510255Y-103474819D02*
X131319779Y-103379580D01*
X132557874Y-103760533D02*
X134081684Y-103760533D01*
X136081683Y-104522438D02*
X134938826Y-104522438D01*
X135510254Y-104522438D02*
X135510254Y-102522438D01*
X135510254Y-102522438D02*
X135319778Y-102808152D01*
X135319778Y-102808152D02*
X135129302Y-102998628D01*
X135129302Y-102998628D02*
X134938826Y-103093866D01*
X118588188Y-141456019D02*
X118016760Y-141456019D01*
X118302474Y-141456019D02*
X118302474Y-140456019D01*
X118302474Y-140456019D02*
X118207236Y-140598876D01*
X118207236Y-140598876D02*
X118111998Y-140694114D01*
X118111998Y-140694114D02*
X118016760Y-140741733D01*
X104449667Y-143471619D02*
X104449667Y-142471619D01*
X104449667Y-142471619D02*
X104783000Y-143185904D01*
X104783000Y-143185904D02*
X105116333Y-142471619D01*
X105116333Y-142471619D02*
X105116333Y-143471619D01*
X105592524Y-143471619D02*
X105592524Y-142471619D01*
X105592524Y-142471619D02*
X105830619Y-142471619D01*
X105830619Y-142471619D02*
X105973476Y-142519238D01*
X105973476Y-142519238D02*
X106068714Y-142614476D01*
X106068714Y-142614476D02*
X106116333Y-142709714D01*
X106116333Y-142709714D02*
X106163952Y-142900190D01*
X106163952Y-142900190D02*
X106163952Y-143043047D01*
X106163952Y-143043047D02*
X106116333Y-143233523D01*
X106116333Y-143233523D02*
X106068714Y-143328761D01*
X106068714Y-143328761D02*
X105973476Y-143424000D01*
X105973476Y-143424000D02*
X105830619Y-143471619D01*
X105830619Y-143471619D02*
X105592524Y-143471619D01*
X104854428Y-145081619D02*
X104283000Y-145081619D01*
X104568714Y-145081619D02*
X104568714Y-144081619D01*
X104568714Y-144081619D02*
X104473476Y-144224476D01*
X104473476Y-144224476D02*
X104378238Y-144319714D01*
X104378238Y-144319714D02*
X104283000Y-144367333D01*
X105283000Y-144986380D02*
X105330619Y-145034000D01*
X105330619Y-145034000D02*
X105283000Y-145081619D01*
X105283000Y-145081619D02*
X105235381Y-145034000D01*
X105235381Y-145034000D02*
X105283000Y-144986380D01*
X105283000Y-144986380D02*
X105283000Y-145081619D01*
X105949666Y-144081619D02*
X106044904Y-144081619D01*
X106044904Y-144081619D02*
X106140142Y-144129238D01*
X106140142Y-144129238D02*
X106187761Y-144176857D01*
X106187761Y-144176857D02*
X106235380Y-144272095D01*
X106235380Y-144272095D02*
X106282999Y-144462571D01*
X106282999Y-144462571D02*
X106282999Y-144700666D01*
X106282999Y-144700666D02*
X106235380Y-144891142D01*
X106235380Y-144891142D02*
X106187761Y-144986380D01*
X106187761Y-144986380D02*
X106140142Y-145034000D01*
X106140142Y-145034000D02*
X106044904Y-145081619D01*
X106044904Y-145081619D02*
X105949666Y-145081619D01*
X105949666Y-145081619D02*
X105854428Y-145034000D01*
X105854428Y-145034000D02*
X105806809Y-144986380D01*
X105806809Y-144986380D02*
X105759190Y-144891142D01*
X105759190Y-144891142D02*
X105711571Y-144700666D01*
X105711571Y-144700666D02*
X105711571Y-144462571D01*
X105711571Y-144462571D02*
X105759190Y-144272095D01*
X105759190Y-144272095D02*
X105806809Y-144176857D01*
X105806809Y-144176857D02*
X105854428Y-144129238D01*
X105854428Y-144129238D02*
X105949666Y-144081619D01*
X150282188Y-141456019D02*
X149710760Y-141456019D01*
X149996474Y-141456019D02*
X149996474Y-140456019D01*
X149996474Y-140456019D02*
X149901236Y-140598876D01*
X149901236Y-140598876D02*
X149805998Y-140694114D01*
X149805998Y-140694114D02*
X149710760Y-140741733D01*
X115269180Y-111926666D02*
X115316800Y-111974285D01*
X115316800Y-111974285D02*
X115364419Y-112117142D01*
X115364419Y-112117142D02*
X115364419Y-112212380D01*
X115364419Y-112212380D02*
X115316800Y-112355237D01*
X115316800Y-112355237D02*
X115221561Y-112450475D01*
X115221561Y-112450475D02*
X115126323Y-112498094D01*
X115126323Y-112498094D02*
X114935847Y-112545713D01*
X114935847Y-112545713D02*
X114792990Y-112545713D01*
X114792990Y-112545713D02*
X114602514Y-112498094D01*
X114602514Y-112498094D02*
X114507276Y-112450475D01*
X114507276Y-112450475D02*
X114412038Y-112355237D01*
X114412038Y-112355237D02*
X114364419Y-112212380D01*
X114364419Y-112212380D02*
X114364419Y-112117142D01*
X114364419Y-112117142D02*
X114412038Y-111974285D01*
X114412038Y-111974285D02*
X114459657Y-111926666D01*
X114459657Y-111545713D02*
X114412038Y-111498094D01*
X114412038Y-111498094D02*
X114364419Y-111402856D01*
X114364419Y-111402856D02*
X114364419Y-111164761D01*
X114364419Y-111164761D02*
X114412038Y-111069523D01*
X114412038Y-111069523D02*
X114459657Y-111021904D01*
X114459657Y-111021904D02*
X114554895Y-110974285D01*
X114554895Y-110974285D02*
X114650133Y-110974285D01*
X114650133Y-110974285D02*
X114792990Y-111021904D01*
X114792990Y-111021904D02*
X115364419Y-111593332D01*
X115364419Y-111593332D02*
X115364419Y-110974285D01*
X121612819Y-121065800D02*
X121136628Y-121399133D01*
X121612819Y-121637228D02*
X120612819Y-121637228D01*
X120612819Y-121637228D02*
X120612819Y-121256276D01*
X120612819Y-121256276D02*
X120660438Y-121161038D01*
X120660438Y-121161038D02*
X120708057Y-121113419D01*
X120708057Y-121113419D02*
X120803295Y-121065800D01*
X120803295Y-121065800D02*
X120946152Y-121065800D01*
X120946152Y-121065800D02*
X121041390Y-121113419D01*
X121041390Y-121113419D02*
X121089009Y-121161038D01*
X121089009Y-121161038D02*
X121136628Y-121256276D01*
X121136628Y-121256276D02*
X121136628Y-121637228D01*
X121612819Y-120161038D02*
X121612819Y-120637228D01*
X121612819Y-120637228D02*
X120612819Y-120637228D01*
X121136628Y-119637228D02*
X121612819Y-119637228D01*
X120612819Y-119970561D02*
X121136628Y-119637228D01*
X121136628Y-119637228D02*
X120612819Y-119303895D01*
X121612819Y-118446752D02*
X121612819Y-119018180D01*
X121612819Y-118732466D02*
X120612819Y-118732466D01*
X120612819Y-118732466D02*
X120755676Y-118827704D01*
X120755676Y-118827704D02*
X120850914Y-118922942D01*
X120850914Y-118922942D02*
X120898533Y-119018180D01*
X113382466Y-149616019D02*
X113382466Y-150330304D01*
X113382466Y-150330304D02*
X113334847Y-150473161D01*
X113334847Y-150473161D02*
X113239609Y-150568400D01*
X113239609Y-150568400D02*
X113096752Y-150616019D01*
X113096752Y-150616019D02*
X113001514Y-150616019D01*
X114382466Y-150616019D02*
X113811038Y-150616019D01*
X114096752Y-150616019D02*
X114096752Y-149616019D01*
X114096752Y-149616019D02*
X114001514Y-149758876D01*
X114001514Y-149758876D02*
X113906276Y-149854114D01*
X113906276Y-149854114D02*
X113811038Y-149901733D01*
X107699819Y-121515094D02*
X106699819Y-121515094D01*
X106699819Y-121515094D02*
X106699819Y-121276999D01*
X106699819Y-121276999D02*
X106747438Y-121134142D01*
X106747438Y-121134142D02*
X106842676Y-121038904D01*
X106842676Y-121038904D02*
X106937914Y-120991285D01*
X106937914Y-120991285D02*
X107128390Y-120943666D01*
X107128390Y-120943666D02*
X107271247Y-120943666D01*
X107271247Y-120943666D02*
X107461723Y-120991285D01*
X107461723Y-120991285D02*
X107556961Y-121038904D01*
X107556961Y-121038904D02*
X107652200Y-121134142D01*
X107652200Y-121134142D02*
X107699819Y-121276999D01*
X107699819Y-121276999D02*
X107699819Y-121515094D01*
X107699819Y-119991285D02*
X107699819Y-120562713D01*
X107699819Y-120276999D02*
X106699819Y-120276999D01*
X106699819Y-120276999D02*
X106842676Y-120372237D01*
X106842676Y-120372237D02*
X106937914Y-120467475D01*
X106937914Y-120467475D02*
X106985533Y-120562713D01*
X107329819Y-114688904D02*
X106329819Y-114688904D01*
X107329819Y-114117476D02*
X106758390Y-114546047D01*
X106329819Y-114117476D02*
X106901247Y-114688904D01*
X135205866Y-149612419D02*
X135205866Y-150326704D01*
X135205866Y-150326704D02*
X135158247Y-150469561D01*
X135158247Y-150469561D02*
X135063009Y-150564800D01*
X135063009Y-150564800D02*
X134920152Y-150612419D01*
X134920152Y-150612419D02*
X134824914Y-150612419D01*
X135634438Y-149707657D02*
X135682057Y-149660038D01*
X135682057Y-149660038D02*
X135777295Y-149612419D01*
X135777295Y-149612419D02*
X136015390Y-149612419D01*
X136015390Y-149612419D02*
X136110628Y-149660038D01*
X136110628Y-149660038D02*
X136158247Y-149707657D01*
X136158247Y-149707657D02*
X136205866Y-149802895D01*
X136205866Y-149802895D02*
X136205866Y-149898133D01*
X136205866Y-149898133D02*
X136158247Y-150040990D01*
X136158247Y-150040990D02*
X135586819Y-150612419D01*
X135586819Y-150612419D02*
X136205866Y-150612419D01*
X110189180Y-111875866D02*
X110236800Y-111923485D01*
X110236800Y-111923485D02*
X110284419Y-112066342D01*
X110284419Y-112066342D02*
X110284419Y-112161580D01*
X110284419Y-112161580D02*
X110236800Y-112304437D01*
X110236800Y-112304437D02*
X110141561Y-112399675D01*
X110141561Y-112399675D02*
X110046323Y-112447294D01*
X110046323Y-112447294D02*
X109855847Y-112494913D01*
X109855847Y-112494913D02*
X109712990Y-112494913D01*
X109712990Y-112494913D02*
X109522514Y-112447294D01*
X109522514Y-112447294D02*
X109427276Y-112399675D01*
X109427276Y-112399675D02*
X109332038Y-112304437D01*
X109332038Y-112304437D02*
X109284419Y-112161580D01*
X109284419Y-112161580D02*
X109284419Y-112066342D01*
X109284419Y-112066342D02*
X109332038Y-111923485D01*
X109332038Y-111923485D02*
X109379657Y-111875866D01*
X110284419Y-110923485D02*
X110284419Y-111494913D01*
X110284419Y-111209199D02*
X109284419Y-111209199D01*
X109284419Y-111209199D02*
X109427276Y-111304437D01*
X109427276Y-111304437D02*
X109522514Y-111399675D01*
X109522514Y-111399675D02*
X109570133Y-111494913D01*
X129500333Y-133506380D02*
X129452714Y-133554000D01*
X129452714Y-133554000D02*
X129309857Y-133601619D01*
X129309857Y-133601619D02*
X129214619Y-133601619D01*
X129214619Y-133601619D02*
X129071762Y-133554000D01*
X129071762Y-133554000D02*
X128976524Y-133458761D01*
X128976524Y-133458761D02*
X128928905Y-133363523D01*
X128928905Y-133363523D02*
X128881286Y-133173047D01*
X128881286Y-133173047D02*
X128881286Y-133030190D01*
X128881286Y-133030190D02*
X128928905Y-132839714D01*
X128928905Y-132839714D02*
X128976524Y-132744476D01*
X128976524Y-132744476D02*
X129071762Y-132649238D01*
X129071762Y-132649238D02*
X129214619Y-132601619D01*
X129214619Y-132601619D02*
X129309857Y-132601619D01*
X129309857Y-132601619D02*
X129452714Y-132649238D01*
X129452714Y-132649238D02*
X129500333Y-132696857D01*
X130357476Y-132934952D02*
X130357476Y-133601619D01*
X130119381Y-132554000D02*
X129881286Y-133268285D01*
X129881286Y-133268285D02*
X130500333Y-133268285D01*
X124471133Y-136782980D02*
X124423514Y-136830600D01*
X124423514Y-136830600D02*
X124280657Y-136878219D01*
X124280657Y-136878219D02*
X124185419Y-136878219D01*
X124185419Y-136878219D02*
X124042562Y-136830600D01*
X124042562Y-136830600D02*
X123947324Y-136735361D01*
X123947324Y-136735361D02*
X123899705Y-136640123D01*
X123899705Y-136640123D02*
X123852086Y-136449647D01*
X123852086Y-136449647D02*
X123852086Y-136306790D01*
X123852086Y-136306790D02*
X123899705Y-136116314D01*
X123899705Y-136116314D02*
X123947324Y-136021076D01*
X123947324Y-136021076D02*
X124042562Y-135925838D01*
X124042562Y-135925838D02*
X124185419Y-135878219D01*
X124185419Y-135878219D02*
X124280657Y-135878219D01*
X124280657Y-135878219D02*
X124423514Y-135925838D01*
X124423514Y-135925838D02*
X124471133Y-135973457D01*
X124804467Y-135878219D02*
X125423514Y-135878219D01*
X125423514Y-135878219D02*
X125090181Y-136259171D01*
X125090181Y-136259171D02*
X125233038Y-136259171D01*
X125233038Y-136259171D02*
X125328276Y-136306790D01*
X125328276Y-136306790D02*
X125375895Y-136354409D01*
X125375895Y-136354409D02*
X125423514Y-136449647D01*
X125423514Y-136449647D02*
X125423514Y-136687742D01*
X125423514Y-136687742D02*
X125375895Y-136782980D01*
X125375895Y-136782980D02*
X125328276Y-136830600D01*
X125328276Y-136830600D02*
X125233038Y-136878219D01*
X125233038Y-136878219D02*
X124947324Y-136878219D01*
X124947324Y-136878219D02*
X124852086Y-136830600D01*
X124852086Y-136830600D02*
X124804467Y-136782980D01*
D11*
%TO.C,C2*%
X114935000Y-123547000D02*
X114935000Y-121607000D01*
X113515000Y-121607000D02*
X116355000Y-121607000D01*
X116355000Y-121607000D02*
X116355000Y-117567000D01*
X113515000Y-117567000D02*
X113515000Y-121607000D01*
X116355000Y-117567000D02*
X113515000Y-117567000D01*
X114935000Y-115627000D02*
X114935000Y-117567000D01*
D12*
%TO.C,RLY1*%
X122999500Y-130530600D02*
X151422100Y-130530600D01*
X151422100Y-130530600D02*
X151422100Y-108585000D01*
X122999500Y-108585000D02*
X122999500Y-130530600D01*
X151422100Y-108585000D02*
X122999500Y-108585000D01*
D11*
%TO.C,J1*%
X117695800Y-145361200D02*
X117695800Y-141361200D01*
X117405800Y-149071200D02*
X115125800Y-149071200D01*
X117405800Y-139101200D02*
X117405800Y-149071200D01*
X117405800Y-139101200D02*
X110025800Y-139101200D01*
X117405800Y-138101200D02*
X117405800Y-139101200D01*
X115125800Y-149071200D02*
X115125800Y-148671200D01*
X115125800Y-148671200D02*
X112425800Y-148671200D01*
X112425800Y-149071200D02*
X110025800Y-149071200D01*
X112425800Y-148671200D02*
X112425800Y-149071200D01*
X110025800Y-149071200D02*
X110025800Y-138101200D01*
X110025800Y-138101200D02*
X117405800Y-138101200D01*
%TO.C,D1*%
X104775000Y-115767000D02*
X104775000Y-118057000D01*
X106245000Y-118057000D02*
X103305000Y-118057000D01*
X103305000Y-118057000D02*
X103305000Y-123497000D01*
X106245000Y-118837000D02*
X103305000Y-118837000D01*
X106245000Y-118957000D02*
X103305000Y-118957000D01*
X106245000Y-119077000D02*
X103305000Y-119077000D01*
X106245000Y-123497000D02*
X106245000Y-118057000D01*
X103305000Y-123497000D02*
X106245000Y-123497000D01*
X104775000Y-125787000D02*
X104775000Y-123497000D01*
%TO.C,J2*%
X149419200Y-145357600D02*
X149419200Y-141357600D01*
X149129200Y-149067600D02*
X146849200Y-149067600D01*
X149129200Y-139097600D02*
X149129200Y-149067600D01*
X149129200Y-139097600D02*
X121949200Y-139097600D01*
X149129200Y-138097600D02*
X149129200Y-139097600D01*
X146849200Y-149067600D02*
X146849200Y-148667600D01*
X146849200Y-148667600D02*
X144149200Y-148667600D01*
X144149200Y-149067600D02*
X121949200Y-149067600D01*
X144149200Y-148667600D02*
X144149200Y-149067600D01*
X121949200Y-149067600D02*
X121949200Y-138097600D01*
X121949200Y-138097600D02*
X149129200Y-138097600D01*
%TO.C,C1*%
X109935000Y-123467000D02*
X109935000Y-121527000D01*
X108515000Y-121527000D02*
X111355000Y-121527000D01*
X111355000Y-121527000D02*
X111355000Y-117487000D01*
X108515000Y-117487000D02*
X108515000Y-121527000D01*
X111355000Y-117487000D02*
X108515000Y-117487000D01*
X109935000Y-115547000D02*
X109935000Y-117487000D01*
%TO.C,C4*%
X133203800Y-133019800D02*
X135143800Y-133019800D01*
X135143800Y-131599800D02*
X135143800Y-134439800D01*
X135143800Y-134439800D02*
X139183800Y-134439800D01*
X139183800Y-131599800D02*
X135143800Y-131599800D01*
X139183800Y-134439800D02*
X139183800Y-131599800D01*
X141123800Y-133019800D02*
X139183800Y-133019800D01*
%TO.C,C3*%
X128200000Y-136372600D02*
X130140000Y-136372600D01*
X130140000Y-134952600D02*
X130140000Y-137792600D01*
X130140000Y-137792600D02*
X134180000Y-137792600D01*
X134180000Y-134952600D02*
X130140000Y-134952600D01*
X134180000Y-137792600D02*
X134180000Y-134952600D01*
X136120000Y-136372600D02*
X134180000Y-136372600D01*
%TD*%
%LPC*%
D13*
%TO.C,H1*%
X149640000Y-104196000D03*
%TD*%
D14*
%TO.C,C2*%
X114935000Y-124587000D03*
D15*
X114935000Y-114587000D03*
%TD*%
D13*
%TO.C,H3*%
X149640000Y-135926000D03*
%TD*%
%TO.C,H2*%
X105240000Y-104196000D03*
%TD*%
D16*
%TO.C,RLY1*%
X128295400Y-124561600D03*
X128295400Y-114554000D03*
X132994400Y-124561600D03*
X132994400Y-114554000D03*
X138887200Y-124561600D03*
X138887200Y-114554000D03*
X146126200Y-126657100D03*
X146126200Y-112458500D03*
%TD*%
D17*
%TO.C,J1*%
X115695800Y-143361200D03*
D18*
X111735800Y-143361200D03*
%TD*%
D13*
%TO.C,H4*%
X105240000Y-135926000D03*
%TD*%
D19*
%TO.C,D1*%
X104775000Y-114427000D03*
D20*
X104775000Y-127127000D03*
%TD*%
D17*
%TO.C,J2*%
X147419200Y-143357600D03*
D18*
X143459200Y-143357600D03*
X139499200Y-143357600D03*
X135539200Y-143357600D03*
X131579200Y-143357600D03*
X127619200Y-143357600D03*
X123659200Y-143357600D03*
%TD*%
D14*
%TO.C,C1*%
X109935000Y-124507000D03*
D15*
X109935000Y-114507000D03*
%TD*%
D14*
%TO.C,C4*%
X132163800Y-133019800D03*
D15*
X142163800Y-133019800D03*
%TD*%
D14*
%TO.C,C3*%
X127160000Y-136372600D03*
D15*
X137160000Y-136372600D03*
%TD*%
%LPD*%
M02*
