M48
; DRILL file {KiCad 7.0.10-7.0.10~ubuntu22.04.1} date Tue 16 Jan 2024 07:59:13 PM
; FORMAT={-:-/ absolute / metric / decimal}
; #@! TF.CreationDate,2024-01-16T19:59:13-05:00
; #@! TF.GenerationSoftware,Kicad,Pcbnew,7.0.10-7.0.10~ubuntu22.04.1
; #@! TF.FileFunction,Plated,1,2,PTH
FMAT,2
METRIC
; #@! TA.AperFunction,Plated,PTH,ComponentDrill
T1C0.800
; #@! TA.AperFunction,Plated,PTH,ComponentDrill
T2C1.100
; #@! TA.AperFunction,Plated,PTH,ComponentDrill
T3C1.800
; #@! TA.AperFunction,Plated,PTH,ComponentDrill
T4C2.184
%
G90
G05
T1
X109.935Y-114.507
X109.935Y-124.507
X114.935Y-114.587
X114.935Y-124.587
X127.16Y-136.373
X132.164Y-133.02
X137.16Y-136.373
X142.164Y-133.02
T2
X104.775Y-114.427
X104.775Y-127.127
T3
X111.736Y-143.361
X115.696Y-143.361
X123.659Y-143.358
X127.619Y-143.358
X131.579Y-143.358
X135.539Y-143.358
X139.499Y-143.358
X143.459Y-143.358
X147.419Y-143.358
T4
X128.295Y-114.554
X128.295Y-124.562
X132.994Y-114.554
X132.994Y-124.562
X138.887Y-114.554
X138.887Y-124.562
X146.126Y-112.459
X146.126Y-126.657
M30
