%TF.GenerationSoftware,KiCad,Pcbnew,7.0.10-7.0.10~ubuntu22.04.1*%
%TF.CreationDate,2024-01-16T19:58:32-05:00*%
%TF.ProjectId,sys11-c11998-relay,73797331-312d-4633-9131-3939382d7265,1.0*%
%TF.SameCoordinates,Original*%
%TF.FileFunction,Copper,L1,Top*%
%TF.FilePolarity,Positive*%
%FSLAX46Y46*%
G04 Gerber Fmt 4.6, Leading zero omitted, Abs format (unit mm)*
G04 Created by KiCad (PCBNEW 7.0.10-7.0.10~ubuntu22.04.1) date 2024-01-16 19:58:32*
%MOMM*%
%LPD*%
G01*
G04 APERTURE LIST*
G04 Aperture macros list*
%AMRoundRect*
0 Rectangle with rounded corners*
0 $1 Rounding radius*
0 $2 $3 $4 $5 $6 $7 $8 $9 X,Y pos of 4 corners*
0 Add a 4 corners polygon primitive as box body*
4,1,4,$2,$3,$4,$5,$6,$7,$8,$9,$2,$3,0*
0 Add four circle primitives for the rounded corners*
1,1,$1+$1,$2,$3*
1,1,$1+$1,$4,$5*
1,1,$1+$1,$6,$7*
1,1,$1+$1,$8,$9*
0 Add four rect primitives between the rounded corners*
20,1,$1+$1,$2,$3,$4,$5,0*
20,1,$1+$1,$4,$5,$6,$7,0*
20,1,$1+$1,$6,$7,$8,$9,0*
20,1,$1+$1,$8,$9,$2,$3,0*%
G04 Aperture macros list end*
%TA.AperFunction,ComponentPad*%
%ADD10C,1.600000*%
%TD*%
%TA.AperFunction,ComponentPad*%
%ADD11O,1.600000X1.600000*%
%TD*%
%TA.AperFunction,ComponentPad*%
%ADD12O,3.160000X5.000000*%
%TD*%
%TA.AperFunction,ComponentPad*%
%ADD13RoundRect,0.250000X1.330000X3.750000X-1.330000X3.750000X-1.330000X-3.750000X1.330000X-3.750000X0*%
%TD*%
%TA.AperFunction,ComponentPad*%
%ADD14O,3.160000X8.000000*%
%TD*%
%TA.AperFunction,ComponentPad*%
%ADD15R,2.200000X2.200000*%
%TD*%
%TA.AperFunction,ComponentPad*%
%ADD16O,2.200000X2.200000*%
%TD*%
%TA.AperFunction,Conductor*%
%ADD17C,2.000000*%
%TD*%
%TA.AperFunction,Conductor*%
%ADD18C,1.000000*%
%TD*%
G04 APERTURE END LIST*
D10*
%TO.P,C2,1*%
%TO.N,Net-(J2-Pin_6)*%
X114935000Y-124587000D03*
D11*
%TO.P,C2,2*%
%TO.N,Net-(J2-Pin_1)*%
X114935000Y-114587000D03*
%TD*%
D12*
%TO.P,RLY1,1,1*%
%TO.N,Net-(J2-Pin_5)*%
X128295400Y-124561600D03*
%TO.P,RLY1,2,2*%
%TO.N,Net-(J2-Pin_4)*%
X128295400Y-114554000D03*
%TO.P,RLY1,3,3*%
%TO.N,Net-(J2-Pin_7)*%
X132994400Y-124561600D03*
%TO.P,RLY1,4,4*%
%TO.N,Net-(J2-Pin_6)*%
X132994400Y-114554000D03*
%TO.P,RLY1,5,5*%
%TO.N,Net-(J2-Pin_2)*%
X138887200Y-124561600D03*
%TO.P,RLY1,6,6*%
%TO.N,Net-(J2-Pin_1)*%
X138887200Y-114554000D03*
%TO.P,RLY1,7,A*%
%TO.N,Net-(D1-K)*%
X146126200Y-126657100D03*
%TO.P,RLY1,8,B*%
%TO.N,Net-(D1-A)*%
X146126200Y-112458500D03*
%TD*%
D13*
%TO.P,J1,1,Pin_1*%
%TO.N,Net-(D1-K)*%
X115695800Y-143361200D03*
D14*
%TO.P,J1,2,Pin_2*%
%TO.N,Net-(D1-A)*%
X111735800Y-143361200D03*
%TD*%
D15*
%TO.P,D1,1,K*%
%TO.N,Net-(D1-K)*%
X104775000Y-114427000D03*
D16*
%TO.P,D1,2,A*%
%TO.N,Net-(D1-A)*%
X104775000Y-127127000D03*
%TD*%
D13*
%TO.P,J2,1,Pin_1*%
%TO.N,Net-(J2-Pin_1)*%
X147419200Y-143357600D03*
D14*
%TO.P,J2,2,Pin_2*%
%TO.N,Net-(J2-Pin_2)*%
X143459200Y-143357600D03*
%TO.P,J2,3,Pin_3*%
%TO.N,unconnected-(J2-Pin_3-Pad3)*%
X139499200Y-143357600D03*
%TO.P,J2,4,Pin_4*%
%TO.N,Net-(J2-Pin_4)*%
X135539200Y-143357600D03*
%TO.P,J2,5,Pin_5*%
%TO.N,Net-(J2-Pin_5)*%
X131579200Y-143357600D03*
%TO.P,J2,6,Pin_6*%
%TO.N,Net-(J2-Pin_6)*%
X127619200Y-143357600D03*
%TO.P,J2,7,Pin_7*%
%TO.N,Net-(J2-Pin_7)*%
X123659200Y-143357600D03*
%TD*%
D10*
%TO.P,C1,1*%
%TO.N,Net-(J2-Pin_4)*%
X109935000Y-124507000D03*
D11*
%TO.P,C1,2*%
%TO.N,Net-(J2-Pin_1)*%
X109935000Y-114507000D03*
%TD*%
D10*
%TO.P,C4,1*%
%TO.N,Net-(J2-Pin_5)*%
X132163800Y-133019800D03*
D11*
%TO.P,C4,2*%
%TO.N,Net-(J2-Pin_2)*%
X142163800Y-133019800D03*
%TD*%
D10*
%TO.P,C3,1*%
%TO.N,Net-(J2-Pin_7)*%
X127160000Y-136372600D03*
D11*
%TO.P,C3,2*%
%TO.N,Net-(J2-Pin_2)*%
X137160000Y-136372600D03*
%TD*%
D17*
%TO.N,Net-(J2-Pin_4)*%
X137668000Y-131572000D02*
X138607800Y-131572000D01*
X142316200Y-127863600D02*
X142316200Y-121259600D01*
X134518400Y-138237800D02*
X134518400Y-134721600D01*
X128244600Y-116332000D02*
X128244600Y-114541300D01*
X134518400Y-134721600D02*
X137668000Y-131572000D01*
X140436600Y-119380000D02*
X131292600Y-119380000D01*
X131292600Y-119380000D02*
X128244600Y-116332000D01*
X135541600Y-139261000D02*
X134518400Y-138237800D01*
X135541600Y-143586200D02*
X135541600Y-139261000D01*
X142316200Y-121259600D02*
X140436600Y-119380000D01*
X138607800Y-131572000D02*
X142316200Y-127863600D01*
%TO.N,Net-(J2-Pin_6)*%
X125831600Y-109855000D02*
X130733800Y-109855000D01*
X119532400Y-124587000D02*
X123774200Y-128828800D01*
X130352800Y-137083800D02*
X130352800Y-135407400D01*
X127621600Y-143586200D02*
X127621600Y-139815000D01*
X123774200Y-111912400D02*
X125831600Y-109855000D01*
X127621600Y-139815000D02*
X130352800Y-137083800D01*
X114935000Y-124587000D02*
X119532400Y-124587000D01*
X123774200Y-128828800D02*
X123774200Y-111912400D01*
X130733800Y-109855000D02*
X132943600Y-112064800D01*
X130352800Y-135407400D02*
X123774200Y-128828800D01*
X132943600Y-112064800D02*
X132943600Y-114541300D01*
D18*
%TO.N,Net-(D1-A)*%
X107670600Y-112191800D02*
X112496600Y-107365800D01*
X112496600Y-107365800D02*
X140995400Y-107365800D01*
X104775000Y-127127000D02*
X104775000Y-120700800D01*
X140995400Y-107365800D02*
X146075400Y-112445800D01*
X111767600Y-143586200D02*
X111767600Y-131579600D01*
X104775000Y-127127000D02*
X107315000Y-127127000D01*
X107670600Y-117805200D02*
X107670600Y-112191800D01*
X104775000Y-120700800D02*
X107670600Y-117805200D01*
X107315000Y-127127000D02*
X111767600Y-131579600D01*
%TD*%
M02*
