%TF.GenerationSoftware,KiCad,Pcbnew,7.0.10-7.0.10~ubuntu22.04.1*%
%TF.CreationDate,2024-01-16T19:59:32-05:00*%
%TF.ProjectId,sys11-c11998-relay,73797331-312d-4633-9131-3939382d7265,1.0*%
%TF.SameCoordinates,Original*%
%TF.FileFunction,Drillmap*%
%TF.FilePolarity,Positive*%
%FSLAX45Y45*%
G04 Gerber Fmt 4.5, Leading zero omitted, Abs format (unit mm)*
G04 Created by KiCad (PCBNEW 7.0.10-7.0.10~ubuntu22.04.1) date 2024-01-16 19:59:32*
%MOMM*%
%LPD*%
G01*
G04 APERTURE LIST*
%ADD10C,0.100000*%
%ADD11C,0.200000*%
%ADD12C,0.320000*%
G04 APERTURE END LIST*
D10*
X10007600Y-10008200D02*
X15307600Y-10008200D01*
X15307600Y-14808200D01*
X10007600Y-14808200D01*
X10007600Y-10008200D01*
D11*
D12*
X10364000Y-10259600D02*
X10684000Y-10579600D01*
X10684000Y-10259600D02*
X10364000Y-10579600D01*
X10364000Y-13432600D02*
X10684000Y-13752600D01*
X10684000Y-13432600D02*
X10364000Y-13752600D01*
X14804000Y-10259600D02*
X15124000Y-10579600D01*
X15124000Y-10259600D02*
X14804000Y-10579600D01*
X14804000Y-13432600D02*
X15124000Y-13752600D01*
X15124000Y-13432600D02*
X14804000Y-13752600D01*
D11*
X10263377Y-15124684D02*
X10263377Y-14924684D01*
X10263377Y-14924684D02*
X10310996Y-14924684D01*
X10310996Y-14924684D02*
X10339567Y-14934208D01*
X10339567Y-14934208D02*
X10358615Y-14953255D01*
X10358615Y-14953255D02*
X10368139Y-14972303D01*
X10368139Y-14972303D02*
X10377663Y-15010398D01*
X10377663Y-15010398D02*
X10377663Y-15038969D01*
X10377663Y-15038969D02*
X10368139Y-15077065D01*
X10368139Y-15077065D02*
X10358615Y-15096112D01*
X10358615Y-15096112D02*
X10339567Y-15115160D01*
X10339567Y-15115160D02*
X10310996Y-15124684D01*
X10310996Y-15124684D02*
X10263377Y-15124684D01*
X10463377Y-15124684D02*
X10463377Y-14991350D01*
X10463377Y-15029446D02*
X10472901Y-15010398D01*
X10472901Y-15010398D02*
X10482424Y-15000874D01*
X10482424Y-15000874D02*
X10501472Y-14991350D01*
X10501472Y-14991350D02*
X10520520Y-14991350D01*
X10587186Y-15124684D02*
X10587186Y-14991350D01*
X10587186Y-14924684D02*
X10577663Y-14934208D01*
X10577663Y-14934208D02*
X10587186Y-14943731D01*
X10587186Y-14943731D02*
X10596710Y-14934208D01*
X10596710Y-14934208D02*
X10587186Y-14924684D01*
X10587186Y-14924684D02*
X10587186Y-14943731D01*
X10710996Y-15124684D02*
X10691948Y-15115160D01*
X10691948Y-15115160D02*
X10682424Y-15096112D01*
X10682424Y-15096112D02*
X10682424Y-14924684D01*
X10815758Y-15124684D02*
X10796710Y-15115160D01*
X10796710Y-15115160D02*
X10787186Y-15096112D01*
X10787186Y-15096112D02*
X10787186Y-14924684D01*
X11044329Y-15124684D02*
X11044329Y-14924684D01*
X11044329Y-14924684D02*
X11110996Y-15067541D01*
X11110996Y-15067541D02*
X11177663Y-14924684D01*
X11177663Y-14924684D02*
X11177663Y-15124684D01*
X11358615Y-15124684D02*
X11358615Y-15019922D01*
X11358615Y-15019922D02*
X11349091Y-15000874D01*
X11349091Y-15000874D02*
X11330043Y-14991350D01*
X11330043Y-14991350D02*
X11291948Y-14991350D01*
X11291948Y-14991350D02*
X11272901Y-15000874D01*
X11358615Y-15115160D02*
X11339567Y-15124684D01*
X11339567Y-15124684D02*
X11291948Y-15124684D01*
X11291948Y-15124684D02*
X11272901Y-15115160D01*
X11272901Y-15115160D02*
X11263377Y-15096112D01*
X11263377Y-15096112D02*
X11263377Y-15077065D01*
X11263377Y-15077065D02*
X11272901Y-15058017D01*
X11272901Y-15058017D02*
X11291948Y-15048493D01*
X11291948Y-15048493D02*
X11339567Y-15048493D01*
X11339567Y-15048493D02*
X11358615Y-15038969D01*
X11453853Y-14991350D02*
X11453853Y-15191350D01*
X11453853Y-15000874D02*
X11472901Y-14991350D01*
X11472901Y-14991350D02*
X11510996Y-14991350D01*
X11510996Y-14991350D02*
X11530043Y-15000874D01*
X11530043Y-15000874D02*
X11539567Y-15010398D01*
X11539567Y-15010398D02*
X11549091Y-15029446D01*
X11549091Y-15029446D02*
X11549091Y-15086588D01*
X11549091Y-15086588D02*
X11539567Y-15105636D01*
X11539567Y-15105636D02*
X11530043Y-15115160D01*
X11530043Y-15115160D02*
X11510996Y-15124684D01*
X11510996Y-15124684D02*
X11472901Y-15124684D01*
X11472901Y-15124684D02*
X11453853Y-15115160D01*
X11634805Y-15105636D02*
X11644329Y-15115160D01*
X11644329Y-15115160D02*
X11634805Y-15124684D01*
X11634805Y-15124684D02*
X11625282Y-15115160D01*
X11625282Y-15115160D02*
X11634805Y-15105636D01*
X11634805Y-15105636D02*
X11634805Y-15124684D01*
X11634805Y-15000874D02*
X11644329Y-15010398D01*
X11644329Y-15010398D02*
X11634805Y-15019922D01*
X11634805Y-15019922D02*
X11625282Y-15010398D01*
X11625282Y-15010398D02*
X11634805Y-15000874D01*
X11634805Y-15000874D02*
X11634805Y-15019922D01*
X9802600Y-15353200D02*
X10002600Y-15553200D01*
X10002600Y-15353200D02*
X9802600Y-15553200D01*
X10244329Y-15344684D02*
X10368139Y-15344684D01*
X10368139Y-15344684D02*
X10301472Y-15420874D01*
X10301472Y-15420874D02*
X10330044Y-15420874D01*
X10330044Y-15420874D02*
X10349091Y-15430398D01*
X10349091Y-15430398D02*
X10358615Y-15439922D01*
X10358615Y-15439922D02*
X10368139Y-15458969D01*
X10368139Y-15458969D02*
X10368139Y-15506588D01*
X10368139Y-15506588D02*
X10358615Y-15525636D01*
X10358615Y-15525636D02*
X10349091Y-15535160D01*
X10349091Y-15535160D02*
X10330044Y-15544684D01*
X10330044Y-15544684D02*
X10272901Y-15544684D01*
X10272901Y-15544684D02*
X10253853Y-15535160D01*
X10253853Y-15535160D02*
X10244329Y-15525636D01*
X10453853Y-15525636D02*
X10463377Y-15535160D01*
X10463377Y-15535160D02*
X10453853Y-15544684D01*
X10453853Y-15544684D02*
X10444329Y-15535160D01*
X10444329Y-15535160D02*
X10453853Y-15525636D01*
X10453853Y-15525636D02*
X10453853Y-15544684D01*
X10539567Y-15363731D02*
X10549091Y-15354208D01*
X10549091Y-15354208D02*
X10568139Y-15344684D01*
X10568139Y-15344684D02*
X10615758Y-15344684D01*
X10615758Y-15344684D02*
X10634805Y-15354208D01*
X10634805Y-15354208D02*
X10644329Y-15363731D01*
X10644329Y-15363731D02*
X10653853Y-15382779D01*
X10653853Y-15382779D02*
X10653853Y-15401827D01*
X10653853Y-15401827D02*
X10644329Y-15430398D01*
X10644329Y-15430398D02*
X10530044Y-15544684D01*
X10530044Y-15544684D02*
X10653853Y-15544684D01*
X10777663Y-15344684D02*
X10796710Y-15344684D01*
X10796710Y-15344684D02*
X10815758Y-15354208D01*
X10815758Y-15354208D02*
X10825282Y-15363731D01*
X10825282Y-15363731D02*
X10834805Y-15382779D01*
X10834805Y-15382779D02*
X10844329Y-15420874D01*
X10844329Y-15420874D02*
X10844329Y-15468493D01*
X10844329Y-15468493D02*
X10834805Y-15506588D01*
X10834805Y-15506588D02*
X10825282Y-15525636D01*
X10825282Y-15525636D02*
X10815758Y-15535160D01*
X10815758Y-15535160D02*
X10796710Y-15544684D01*
X10796710Y-15544684D02*
X10777663Y-15544684D01*
X10777663Y-15544684D02*
X10758615Y-15535160D01*
X10758615Y-15535160D02*
X10749091Y-15525636D01*
X10749091Y-15525636D02*
X10739567Y-15506588D01*
X10739567Y-15506588D02*
X10730044Y-15468493D01*
X10730044Y-15468493D02*
X10730044Y-15420874D01*
X10730044Y-15420874D02*
X10739567Y-15382779D01*
X10739567Y-15382779D02*
X10749091Y-15363731D01*
X10749091Y-15363731D02*
X10758615Y-15354208D01*
X10758615Y-15354208D02*
X10777663Y-15344684D01*
X10968139Y-15344684D02*
X10987186Y-15344684D01*
X10987186Y-15344684D02*
X11006234Y-15354208D01*
X11006234Y-15354208D02*
X11015758Y-15363731D01*
X11015758Y-15363731D02*
X11025282Y-15382779D01*
X11025282Y-15382779D02*
X11034805Y-15420874D01*
X11034805Y-15420874D02*
X11034805Y-15468493D01*
X11034805Y-15468493D02*
X11025282Y-15506588D01*
X11025282Y-15506588D02*
X11015758Y-15525636D01*
X11015758Y-15525636D02*
X11006234Y-15535160D01*
X11006234Y-15535160D02*
X10987186Y-15544684D01*
X10987186Y-15544684D02*
X10968139Y-15544684D01*
X10968139Y-15544684D02*
X10949091Y-15535160D01*
X10949091Y-15535160D02*
X10939567Y-15525636D01*
X10939567Y-15525636D02*
X10930044Y-15506588D01*
X10930044Y-15506588D02*
X10920520Y-15468493D01*
X10920520Y-15468493D02*
X10920520Y-15420874D01*
X10920520Y-15420874D02*
X10930044Y-15382779D01*
X10930044Y-15382779D02*
X10939567Y-15363731D01*
X10939567Y-15363731D02*
X10949091Y-15354208D01*
X10949091Y-15354208D02*
X10968139Y-15344684D01*
X11120520Y-15544684D02*
X11120520Y-15411350D01*
X11120520Y-15430398D02*
X11130044Y-15420874D01*
X11130044Y-15420874D02*
X11149091Y-15411350D01*
X11149091Y-15411350D02*
X11177663Y-15411350D01*
X11177663Y-15411350D02*
X11196710Y-15420874D01*
X11196710Y-15420874D02*
X11206234Y-15439922D01*
X11206234Y-15439922D02*
X11206234Y-15544684D01*
X11206234Y-15439922D02*
X11215758Y-15420874D01*
X11215758Y-15420874D02*
X11234805Y-15411350D01*
X11234805Y-15411350D02*
X11263377Y-15411350D01*
X11263377Y-15411350D02*
X11282424Y-15420874D01*
X11282424Y-15420874D02*
X11291948Y-15439922D01*
X11291948Y-15439922D02*
X11291948Y-15544684D01*
X11387186Y-15544684D02*
X11387186Y-15411350D01*
X11387186Y-15430398D02*
X11396710Y-15420874D01*
X11396710Y-15420874D02*
X11415758Y-15411350D01*
X11415758Y-15411350D02*
X11444329Y-15411350D01*
X11444329Y-15411350D02*
X11463377Y-15420874D01*
X11463377Y-15420874D02*
X11472901Y-15439922D01*
X11472901Y-15439922D02*
X11472901Y-15544684D01*
X11472901Y-15439922D02*
X11482424Y-15420874D01*
X11482424Y-15420874D02*
X11501472Y-15411350D01*
X11501472Y-15411350D02*
X11530043Y-15411350D01*
X11530043Y-15411350D02*
X11549091Y-15420874D01*
X11549091Y-15420874D02*
X11558615Y-15439922D01*
X11558615Y-15439922D02*
X11558615Y-15544684D01*
X11949091Y-15335160D02*
X11777663Y-15592303D01*
X12206234Y-15344684D02*
X12225282Y-15344684D01*
X12225282Y-15344684D02*
X12244329Y-15354208D01*
X12244329Y-15354208D02*
X12253853Y-15363731D01*
X12253853Y-15363731D02*
X12263377Y-15382779D01*
X12263377Y-15382779D02*
X12272901Y-15420874D01*
X12272901Y-15420874D02*
X12272901Y-15468493D01*
X12272901Y-15468493D02*
X12263377Y-15506588D01*
X12263377Y-15506588D02*
X12253853Y-15525636D01*
X12253853Y-15525636D02*
X12244329Y-15535160D01*
X12244329Y-15535160D02*
X12225282Y-15544684D01*
X12225282Y-15544684D02*
X12206234Y-15544684D01*
X12206234Y-15544684D02*
X12187186Y-15535160D01*
X12187186Y-15535160D02*
X12177663Y-15525636D01*
X12177663Y-15525636D02*
X12168139Y-15506588D01*
X12168139Y-15506588D02*
X12158615Y-15468493D01*
X12158615Y-15468493D02*
X12158615Y-15420874D01*
X12158615Y-15420874D02*
X12168139Y-15382779D01*
X12168139Y-15382779D02*
X12177663Y-15363731D01*
X12177663Y-15363731D02*
X12187186Y-15354208D01*
X12187186Y-15354208D02*
X12206234Y-15344684D01*
X12358615Y-15525636D02*
X12368139Y-15535160D01*
X12368139Y-15535160D02*
X12358615Y-15544684D01*
X12358615Y-15544684D02*
X12349091Y-15535160D01*
X12349091Y-15535160D02*
X12358615Y-15525636D01*
X12358615Y-15525636D02*
X12358615Y-15544684D01*
X12558615Y-15544684D02*
X12444329Y-15544684D01*
X12501472Y-15544684D02*
X12501472Y-15344684D01*
X12501472Y-15344684D02*
X12482425Y-15373255D01*
X12482425Y-15373255D02*
X12463377Y-15392303D01*
X12463377Y-15392303D02*
X12444329Y-15401827D01*
X12634806Y-15363731D02*
X12644329Y-15354208D01*
X12644329Y-15354208D02*
X12663377Y-15344684D01*
X12663377Y-15344684D02*
X12710996Y-15344684D01*
X12710996Y-15344684D02*
X12730044Y-15354208D01*
X12730044Y-15354208D02*
X12739567Y-15363731D01*
X12739567Y-15363731D02*
X12749091Y-15382779D01*
X12749091Y-15382779D02*
X12749091Y-15401827D01*
X12749091Y-15401827D02*
X12739567Y-15430398D01*
X12739567Y-15430398D02*
X12625282Y-15544684D01*
X12625282Y-15544684D02*
X12749091Y-15544684D01*
X12920520Y-15344684D02*
X12882425Y-15344684D01*
X12882425Y-15344684D02*
X12863377Y-15354208D01*
X12863377Y-15354208D02*
X12853853Y-15363731D01*
X12853853Y-15363731D02*
X12834806Y-15392303D01*
X12834806Y-15392303D02*
X12825282Y-15430398D01*
X12825282Y-15430398D02*
X12825282Y-15506588D01*
X12825282Y-15506588D02*
X12834806Y-15525636D01*
X12834806Y-15525636D02*
X12844329Y-15535160D01*
X12844329Y-15535160D02*
X12863377Y-15544684D01*
X12863377Y-15544684D02*
X12901472Y-15544684D01*
X12901472Y-15544684D02*
X12920520Y-15535160D01*
X12920520Y-15535160D02*
X12930044Y-15525636D01*
X12930044Y-15525636D02*
X12939567Y-15506588D01*
X12939567Y-15506588D02*
X12939567Y-15458969D01*
X12939567Y-15458969D02*
X12930044Y-15439922D01*
X12930044Y-15439922D02*
X12920520Y-15430398D01*
X12920520Y-15430398D02*
X12901472Y-15420874D01*
X12901472Y-15420874D02*
X12863377Y-15420874D01*
X12863377Y-15420874D02*
X12844329Y-15430398D01*
X12844329Y-15430398D02*
X12834806Y-15439922D01*
X12834806Y-15439922D02*
X12825282Y-15458969D01*
X13063377Y-15344684D02*
X13082425Y-15344684D01*
X13082425Y-15344684D02*
X13101472Y-15354208D01*
X13101472Y-15354208D02*
X13110996Y-15363731D01*
X13110996Y-15363731D02*
X13120520Y-15382779D01*
X13120520Y-15382779D02*
X13130044Y-15420874D01*
X13130044Y-15420874D02*
X13130044Y-15468493D01*
X13130044Y-15468493D02*
X13120520Y-15506588D01*
X13120520Y-15506588D02*
X13110996Y-15525636D01*
X13110996Y-15525636D02*
X13101472Y-15535160D01*
X13101472Y-15535160D02*
X13082425Y-15544684D01*
X13082425Y-15544684D02*
X13063377Y-15544684D01*
X13063377Y-15544684D02*
X13044329Y-15535160D01*
X13044329Y-15535160D02*
X13034806Y-15525636D01*
X13034806Y-15525636D02*
X13025282Y-15506588D01*
X13025282Y-15506588D02*
X13015758Y-15468493D01*
X13015758Y-15468493D02*
X13015758Y-15420874D01*
X13015758Y-15420874D02*
X13025282Y-15382779D01*
X13025282Y-15382779D02*
X13034806Y-15363731D01*
X13034806Y-15363731D02*
X13044329Y-15354208D01*
X13044329Y-15354208D02*
X13063377Y-15344684D01*
X13206234Y-15344684D02*
X13206234Y-15382779D01*
X13282425Y-15344684D02*
X13282425Y-15382779D01*
X13577663Y-15620874D02*
X13568139Y-15611350D01*
X13568139Y-15611350D02*
X13549091Y-15582779D01*
X13549091Y-15582779D02*
X13539568Y-15563731D01*
X13539568Y-15563731D02*
X13530044Y-15535160D01*
X13530044Y-15535160D02*
X13520520Y-15487541D01*
X13520520Y-15487541D02*
X13520520Y-15449446D01*
X13520520Y-15449446D02*
X13530044Y-15401827D01*
X13530044Y-15401827D02*
X13539568Y-15373255D01*
X13539568Y-15373255D02*
X13549091Y-15354208D01*
X13549091Y-15354208D02*
X13568139Y-15325636D01*
X13568139Y-15325636D02*
X13577663Y-15316112D01*
X13739568Y-15411350D02*
X13739568Y-15544684D01*
X13691948Y-15335160D02*
X13644329Y-15478017D01*
X13644329Y-15478017D02*
X13768139Y-15478017D01*
X13996710Y-15544684D02*
X13996710Y-15344684D01*
X14082425Y-15544684D02*
X14082425Y-15439922D01*
X14082425Y-15439922D02*
X14072901Y-15420874D01*
X14072901Y-15420874D02*
X14053853Y-15411350D01*
X14053853Y-15411350D02*
X14025282Y-15411350D01*
X14025282Y-15411350D02*
X14006234Y-15420874D01*
X14006234Y-15420874D02*
X13996710Y-15430398D01*
X14206234Y-15544684D02*
X14187187Y-15535160D01*
X14187187Y-15535160D02*
X14177663Y-15525636D01*
X14177663Y-15525636D02*
X14168139Y-15506588D01*
X14168139Y-15506588D02*
X14168139Y-15449446D01*
X14168139Y-15449446D02*
X14177663Y-15430398D01*
X14177663Y-15430398D02*
X14187187Y-15420874D01*
X14187187Y-15420874D02*
X14206234Y-15411350D01*
X14206234Y-15411350D02*
X14234806Y-15411350D01*
X14234806Y-15411350D02*
X14253853Y-15420874D01*
X14253853Y-15420874D02*
X14263377Y-15430398D01*
X14263377Y-15430398D02*
X14272901Y-15449446D01*
X14272901Y-15449446D02*
X14272901Y-15506588D01*
X14272901Y-15506588D02*
X14263377Y-15525636D01*
X14263377Y-15525636D02*
X14253853Y-15535160D01*
X14253853Y-15535160D02*
X14234806Y-15544684D01*
X14234806Y-15544684D02*
X14206234Y-15544684D01*
X14387187Y-15544684D02*
X14368139Y-15535160D01*
X14368139Y-15535160D02*
X14358615Y-15516112D01*
X14358615Y-15516112D02*
X14358615Y-15344684D01*
X14539568Y-15535160D02*
X14520520Y-15544684D01*
X14520520Y-15544684D02*
X14482425Y-15544684D01*
X14482425Y-15544684D02*
X14463377Y-15535160D01*
X14463377Y-15535160D02*
X14453853Y-15516112D01*
X14453853Y-15516112D02*
X14453853Y-15439922D01*
X14453853Y-15439922D02*
X14463377Y-15420874D01*
X14463377Y-15420874D02*
X14482425Y-15411350D01*
X14482425Y-15411350D02*
X14520520Y-15411350D01*
X14520520Y-15411350D02*
X14539568Y-15420874D01*
X14539568Y-15420874D02*
X14549091Y-15439922D01*
X14549091Y-15439922D02*
X14549091Y-15458969D01*
X14549091Y-15458969D02*
X14453853Y-15478017D01*
X14625282Y-15535160D02*
X14644330Y-15544684D01*
X14644330Y-15544684D02*
X14682425Y-15544684D01*
X14682425Y-15544684D02*
X14701472Y-15535160D01*
X14701472Y-15535160D02*
X14710996Y-15516112D01*
X14710996Y-15516112D02*
X14710996Y-15506588D01*
X14710996Y-15506588D02*
X14701472Y-15487541D01*
X14701472Y-15487541D02*
X14682425Y-15478017D01*
X14682425Y-15478017D02*
X14653853Y-15478017D01*
X14653853Y-15478017D02*
X14634806Y-15468493D01*
X14634806Y-15468493D02*
X14625282Y-15449446D01*
X14625282Y-15449446D02*
X14625282Y-15439922D01*
X14625282Y-15439922D02*
X14634806Y-15420874D01*
X14634806Y-15420874D02*
X14653853Y-15411350D01*
X14653853Y-15411350D02*
X14682425Y-15411350D01*
X14682425Y-15411350D02*
X14701472Y-15420874D01*
X14777663Y-15620874D02*
X14787187Y-15611350D01*
X14787187Y-15611350D02*
X14806234Y-15582779D01*
X14806234Y-15582779D02*
X14815758Y-15563731D01*
X14815758Y-15563731D02*
X14825282Y-15535160D01*
X14825282Y-15535160D02*
X14834806Y-15487541D01*
X14834806Y-15487541D02*
X14834806Y-15449446D01*
X14834806Y-15449446D02*
X14825282Y-15401827D01*
X14825282Y-15401827D02*
X14815758Y-15373255D01*
X14815758Y-15373255D02*
X14806234Y-15354208D01*
X14806234Y-15354208D02*
X14787187Y-15325636D01*
X14787187Y-15325636D02*
X14777663Y-15316112D01*
X15139568Y-15620874D02*
X15130044Y-15611350D01*
X15130044Y-15611350D02*
X15110996Y-15582779D01*
X15110996Y-15582779D02*
X15101472Y-15563731D01*
X15101472Y-15563731D02*
X15091949Y-15535160D01*
X15091949Y-15535160D02*
X15082425Y-15487541D01*
X15082425Y-15487541D02*
X15082425Y-15449446D01*
X15082425Y-15449446D02*
X15091949Y-15401827D01*
X15091949Y-15401827D02*
X15101472Y-15373255D01*
X15101472Y-15373255D02*
X15110996Y-15354208D01*
X15110996Y-15354208D02*
X15130044Y-15325636D01*
X15130044Y-15325636D02*
X15139568Y-15316112D01*
X15215758Y-15411350D02*
X15215758Y-15544684D01*
X15215758Y-15430398D02*
X15225282Y-15420874D01*
X15225282Y-15420874D02*
X15244330Y-15411350D01*
X15244330Y-15411350D02*
X15272901Y-15411350D01*
X15272901Y-15411350D02*
X15291949Y-15420874D01*
X15291949Y-15420874D02*
X15301472Y-15439922D01*
X15301472Y-15439922D02*
X15301472Y-15544684D01*
X15425282Y-15544684D02*
X15406234Y-15535160D01*
X15406234Y-15535160D02*
X15396711Y-15525636D01*
X15396711Y-15525636D02*
X15387187Y-15506588D01*
X15387187Y-15506588D02*
X15387187Y-15449446D01*
X15387187Y-15449446D02*
X15396711Y-15430398D01*
X15396711Y-15430398D02*
X15406234Y-15420874D01*
X15406234Y-15420874D02*
X15425282Y-15411350D01*
X15425282Y-15411350D02*
X15453853Y-15411350D01*
X15453853Y-15411350D02*
X15472901Y-15420874D01*
X15472901Y-15420874D02*
X15482425Y-15430398D01*
X15482425Y-15430398D02*
X15491949Y-15449446D01*
X15491949Y-15449446D02*
X15491949Y-15506588D01*
X15491949Y-15506588D02*
X15482425Y-15525636D01*
X15482425Y-15525636D02*
X15472901Y-15535160D01*
X15472901Y-15535160D02*
X15453853Y-15544684D01*
X15453853Y-15544684D02*
X15425282Y-15544684D01*
X15549092Y-15411350D02*
X15625282Y-15411350D01*
X15577663Y-15344684D02*
X15577663Y-15516112D01*
X15577663Y-15516112D02*
X15587187Y-15535160D01*
X15587187Y-15535160D02*
X15606234Y-15544684D01*
X15606234Y-15544684D02*
X15625282Y-15544684D01*
X15844330Y-15411350D02*
X15844330Y-15611350D01*
X15844330Y-15420874D02*
X15863377Y-15411350D01*
X15863377Y-15411350D02*
X15901473Y-15411350D01*
X15901473Y-15411350D02*
X15920520Y-15420874D01*
X15920520Y-15420874D02*
X15930044Y-15430398D01*
X15930044Y-15430398D02*
X15939568Y-15449446D01*
X15939568Y-15449446D02*
X15939568Y-15506588D01*
X15939568Y-15506588D02*
X15930044Y-15525636D01*
X15930044Y-15525636D02*
X15920520Y-15535160D01*
X15920520Y-15535160D02*
X15901473Y-15544684D01*
X15901473Y-15544684D02*
X15863377Y-15544684D01*
X15863377Y-15544684D02*
X15844330Y-15535160D01*
X16053853Y-15544684D02*
X16034806Y-15535160D01*
X16034806Y-15535160D02*
X16025282Y-15516112D01*
X16025282Y-15516112D02*
X16025282Y-15344684D01*
X16215758Y-15544684D02*
X16215758Y-15439922D01*
X16215758Y-15439922D02*
X16206234Y-15420874D01*
X16206234Y-15420874D02*
X16187187Y-15411350D01*
X16187187Y-15411350D02*
X16149092Y-15411350D01*
X16149092Y-15411350D02*
X16130044Y-15420874D01*
X16215758Y-15535160D02*
X16196711Y-15544684D01*
X16196711Y-15544684D02*
X16149092Y-15544684D01*
X16149092Y-15544684D02*
X16130044Y-15535160D01*
X16130044Y-15535160D02*
X16120520Y-15516112D01*
X16120520Y-15516112D02*
X16120520Y-15497065D01*
X16120520Y-15497065D02*
X16130044Y-15478017D01*
X16130044Y-15478017D02*
X16149092Y-15468493D01*
X16149092Y-15468493D02*
X16196711Y-15468493D01*
X16196711Y-15468493D02*
X16215758Y-15458969D01*
X16282425Y-15411350D02*
X16358615Y-15411350D01*
X16310996Y-15344684D02*
X16310996Y-15516112D01*
X16310996Y-15516112D02*
X16320520Y-15535160D01*
X16320520Y-15535160D02*
X16339568Y-15544684D01*
X16339568Y-15544684D02*
X16358615Y-15544684D01*
X16501473Y-15535160D02*
X16482425Y-15544684D01*
X16482425Y-15544684D02*
X16444330Y-15544684D01*
X16444330Y-15544684D02*
X16425282Y-15535160D01*
X16425282Y-15535160D02*
X16415758Y-15516112D01*
X16415758Y-15516112D02*
X16415758Y-15439922D01*
X16415758Y-15439922D02*
X16425282Y-15420874D01*
X16425282Y-15420874D02*
X16444330Y-15411350D01*
X16444330Y-15411350D02*
X16482425Y-15411350D01*
X16482425Y-15411350D02*
X16501473Y-15420874D01*
X16501473Y-15420874D02*
X16510996Y-15439922D01*
X16510996Y-15439922D02*
X16510996Y-15458969D01*
X16510996Y-15458969D02*
X16415758Y-15478017D01*
X16682425Y-15544684D02*
X16682425Y-15344684D01*
X16682425Y-15535160D02*
X16663377Y-15544684D01*
X16663377Y-15544684D02*
X16625282Y-15544684D01*
X16625282Y-15544684D02*
X16606234Y-15535160D01*
X16606234Y-15535160D02*
X16596711Y-15525636D01*
X16596711Y-15525636D02*
X16587187Y-15506588D01*
X16587187Y-15506588D02*
X16587187Y-15449446D01*
X16587187Y-15449446D02*
X16596711Y-15430398D01*
X16596711Y-15430398D02*
X16606234Y-15420874D01*
X16606234Y-15420874D02*
X16625282Y-15411350D01*
X16625282Y-15411350D02*
X16663377Y-15411350D01*
X16663377Y-15411350D02*
X16682425Y-15420874D01*
X16758615Y-15620874D02*
X16768139Y-15611350D01*
X16768139Y-15611350D02*
X16787187Y-15582779D01*
X16787187Y-15582779D02*
X16796711Y-15563731D01*
X16796711Y-15563731D02*
X16806235Y-15535160D01*
X16806235Y-15535160D02*
X16815758Y-15487541D01*
X16815758Y-15487541D02*
X16815758Y-15449446D01*
X16815758Y-15449446D02*
X16806235Y-15401827D01*
X16806235Y-15401827D02*
X16796711Y-15373255D01*
X16796711Y-15373255D02*
X16787187Y-15354208D01*
X16787187Y-15354208D02*
X16768139Y-15325636D01*
X16768139Y-15325636D02*
X16758615Y-15316112D01*
M02*
